<?xml version="1.0" encoding="UTF-8" standalone="no"?>
<!-- Created with Inkscape (http://www.inkscape.org/) -->

<svg
   version="1.1"
   id="svg1"
   width="64"
   height="64"
   viewBox="0 0 64 64"
   xmlns="http://www.w3.org/2000/svg"
   xmlns:svg="http://www.w3.org/2000/svg">
  <defs
     id="defs1" />
  <g
     id="g1">
    <path
       style="fill:#000000;stroke-width:0.848136"
       d="M 10.62745,57.815712 C 7.8604405,56.905138 5.796549,55.077109 4.4752937,52.366624 3.9130493,51.213209 3.8163288,50.617956 3.8163288,48.311127 c 0,-2.567249 0.047201,-2.790058 0.9354649,-4.415911 2.3309674,-4.266531 7.2404423,-6.374164 11.6411633,-4.997541 1.568785,0.490743 1.69128,0.635505 1.011501,1.195368 -0.311837,0.256827 -1.339096,0.366561 -3.473671,0.371063 -2.81658,0.0059 -3.121849,0.05945 -4.3172423,0.756783 -2.4860004,1.450203 -4.2306725,4.277182 -4.2776539,6.931292 -0.039675,2.241369 0.752622,4.049767 2.5601718,5.843528 2.4526164,2.433906 5.0597754,3.096636 8.2527504,2.097817 1.760034,-0.550569 3.586916,-2.05784 4.631512,-3.821232 0.689533,-1.164007 0.745397,-1.481131 0.75136,-4.265274 0.0045,-2.118292 0.115113,-3.137715 0.373915,-3.447173 0.564167,-0.674593 0.710041,-0.553032 1.204558,1.003786 1.388815,4.372219 -0.746733,9.265226 -5.035959,11.538482 -1.509205,0.799868 -2.015587,0.924338 -4.041189,0.993339 -1.408255,0.04797 -2.742852,-0.06165 -3.40556,-0.279742 z m 35.417829,0.123327 c -5.667479,-1.52178 -8.974553,-7.123335 -7.306257,-12.375406 0.494517,-1.556818 1.065622,-1.14684 1.629789,-0.472247 0.258802,0.309458 -0.374775,0.691034 -0.370238,2.809326 0.006,2.795094 0.378833,3.204342 1.081523,4.390616 1.489486,2.514532 4.313167,4.200842 7.108176,4.245022 2.20814,0.0349 3.91791,-0.721567 5.757907,-2.547527 2.489481,-2.47049 3.139173,-4.977166 2.120883,-8.182909 -0.554802,-1.746607 -2.073659,-3.559553 -3.850607,-4.59618 -1.172955,-0.684273 -1.705132,-1.164942 -4.510677,-1.170859 -2.134575,-0.0045 -3.002373,0.736226 -3.31421,0.479399 -0.679779,-0.559863 -0.50413,-1.129856 1.064655,-1.620599 4.687414,-1.466305 9.80925,0.962214 11.936792,5.659831 0.465255,1.027285 0.602618,1.861438 0.618905,3.758392 0.01911,2.226076 -0.05606,2.593342 -0.864495,4.223821 -1.64914,3.326027 -4.659282,5.323235 -8.312301,5.515154 -1.084881,0.057 -2.340311,0.0049 -2.789845,-0.115834 z m -33.78316,-6.774291 c -0.897231,-0.364427 -1.536307,-1.261492 -1.680924,-2.359495 -0.183666,-1.394484 0.259352,-2.411514 1.333577,-3.061473 2.918722,-1.76597 6.076198,1.367419 4.296653,4.263876 -0.781038,1.271247 -2.458346,1.762675 -3.949306,1.157092 z m 34.534105,-0.0081 c -0.792141,-0.334771 -1.702185,-1.825975 -1.703484,-2.791341 -0.0023,-1.701648 1.471951,-3.164641 3.186679,-3.162369 1.048119,0.0014 2.4876,0.927233 2.836047,1.824087 0.426296,1.097225 0.117232,2.747959 -0.658653,3.517926 -0.743902,0.738227 -2.619555,1.051655 -3.660589,0.611697 z M 18.119682,46.336054 c 0,-0.188768 -0.553237,-0.876798 -1.229416,-1.528955 l -1.229415,-1.18574 0.888859,-0.615664 c 1.741315,-1.206111 4.312172,-3.874521 5.14677,-5.342066 0.523638,-0.920756 1.045815,-2.452531 1.365567,-4.005804 0.508669,-2.470982 0.508669,-2.558958 0,-5.02994 -0.319752,-1.553273 -0.841929,-3.085048 -1.365567,-4.005804 -0.833195,-1.465077 -3.405107,-4.135814 -5.13934,-5.336816 l -0.88143,-0.610414 1.290097,-1.317855 1.290098,-1.317856 0.544889,0.70613 c 1.495338,1.937826 4.167559,4.464001 5.528139,5.226007 0.929909,0.520805 2.475849,1.047251 3.963532,1.349721 2.248166,0.457088 2.622401,0.464616 4.783228,0.09623 3.160145,-0.538759 5.320829,-1.663737 7.477594,-3.893275 0.938659,-0.970329 1.985445,-2.161172 2.326192,-2.646315 l 0.61954,-0.882079 1.194855,1.220037 c 0.65717,0.67102 1.350489,1.220037 1.540708,1.220037 0.190218,0 -0.142358,0.325824 -0.73906,0.724053 -1.843434,1.230277 -4.453677,3.898939 -5.342822,5.462398 -0.523638,0.920756 -1.045815,2.452531 -1.365567,4.005804 -0.508669,2.470982 -0.508669,2.558958 0,5.02994 0.319752,1.553273 0.841929,3.085048 1.365567,4.005804 0.889145,1.563459 3.499388,4.232121 5.342822,5.462398 0.596702,0.398229 0.929278,0.724053 0.73906,0.724053 -0.190219,0 -0.883538,0.549017 -1.540708,1.220037 l -1.194855,1.220037 -0.620396,-0.882079 c -1.215023,-1.727519 -3.904118,-4.279171 -5.381879,-5.106806 -0.906188,-0.507519 -2.467595,-1.037188 -3.940029,-1.336557 -2.248166,-0.457088 -2.622401,-0.464616 -4.783228,-0.09623 -3.155498,0.537967 -5.319039,1.663528 -7.483608,3.893275 -0.941966,0.970329 -2.040611,2.248722 -2.441431,2.840871 -0.400821,0.59215 -0.728766,0.92219 -0.728766,0.733423 z M 10.396991,23.269721 C 7.6130478,22.17759 5.6361156,20.333536 4.4561655,17.728204 3.9909106,16.700919 3.8535482,15.866766 3.8372619,13.969812 3.8181482,11.743737 3.8933175,11.37647 4.7017567,9.745991 5.7527424,7.6263355 7.4641115,5.9647865 9.6261751,4.9649273 c 2.0849539,-0.9642 5.7336709,-1.0066869 7.7806429,-0.090601 4.718162,2.111531 7.174907,7.2150137 5.70334,11.8477507 -0.494517,1.556818 -0.640391,1.678379 -1.204558,1.003786 -0.258802,-0.309459 -0.369379,-1.328881 -0.373915,-3.447173 -0.006,-2.795093 -0.05991,-3.098034 -0.762601,-4.2843086 C 18.717451,6.5308409 14.627317,4.9531131 10.936461,6.2015472 8.9615902,6.8695485 6.3973316,9.4124314 5.773249,11.32172 c -1.2293724,3.761086 0.3264392,7.69317 3.8594775,9.754256 1.1729545,0.684273 1.4925155,0.739711 4.2980605,0.745628 2.134575,0.0045 3.161834,0.114236 3.473671,0.371063 0.679779,0.559863 0.557284,0.704625 -1.011501,1.195368 -1.872646,0.585797 -4.324446,0.537417 -5.995966,-0.118314 z m 34.899065,0.09437 c -1.408312,-0.464862 -1.520988,-0.619902 -0.851334,-1.171425 0.311837,-0.256827 1.339096,-0.366562 3.473671,-0.371063 2.805545,-0.0059 3.125107,-0.06136 4.298062,-0.745628 1.776948,-1.036627 3.295805,-2.849573 3.850607,-4.59618 1.006497,-3.168618 0.338673,-5.755888 -2.113944,-8.1897944 -1.80755,-1.7937608 -3.629849,-2.5800136 -5.888448,-2.5406415 -2.674512,0.046621 -5.523223,1.7779858 -6.984574,4.2450216 -0.702692,1.1862743 -0.756614,1.4892153 -0.7626,4.2843083 -0.0045,2.118292 -0.115114,3.137714 -0.373916,3.447173 -0.564167,0.674593 -0.710041,0.553032 -1.204558,-1.003786 -1.387204,-4.367149 0.736631,-9.2391726 5.035959,-11.5523581 1.638351,-0.8814885 1.862873,-0.9283286 4.449857,-0.9283286 2.433077,0 2.895062,0.081803 4.31976,0.7649276 2.030781,0.9737274 3.736234,2.66617 4.717446,4.6814589 0.68844,1.4139702 0.770786,1.8720512 0.770599,4.2868062 -1.88e-4,2.41358 -0.07896,2.851824 -0.734133,4.084547 -1.391915,2.618903 -3.163822,4.171054 -5.969784,5.2294 -1.756332,0.66245 -4.163343,0.692598 -6.03267,0.07556 z M 11.914772,16.54193 c -0.49073,-0.296915 -1.022206,-0.874369 -1.181057,-1.28323 -0.423819,-1.09085 -0.117213,-2.747978 0.64915,-3.508495 0.766363,-0.760517 2.43623,-1.064784 3.535465,-0.644199 0.903748,0.34579 1.83671,1.774289 1.83811,2.814412 0.0033,2.484758 -2.672829,3.933766 -4.841668,2.621512 z m 34.746933,0.11864 c -0.880148,-0.473921 -1.570392,-1.679412 -1.568965,-2.740152 0.0014,-1.040123 0.934362,-2.468622 1.83811,-2.814412 1.099236,-0.420585 2.769102,-0.116318 3.535465,0.644199 0.766364,0.760517 1.07297,2.417645 0.649151,3.508495 -0.596127,1.534348 -2.875368,2.251763 -4.453761,1.40187 z"
       id="path1" />
  </g>
</svg>
