<?xml version="1.0" encoding="UTF-8" standalone="no"?>
<!-- Created with Inkscape (http://www.inkscape.org/) -->

<svg
   version="1.1"
   id="svg1"
   width="64"
   height="64"
   viewBox="0 0 64 64"
   sodipodi:docname="gerbera.svg"
   inkscape:version="1.3.2 (091e20e, 2023-11-25, custom)"
   xmlns:inkscape="http://www.inkscape.org/namespaces/inkscape"
   xmlns:sodipodi="http://sodipodi.sourceforge.net/DTD/sodipodi-0.dtd"
   xmlns="http://www.w3.org/2000/svg"
   xmlns:svg="http://www.w3.org/2000/svg">
  <defs
     id="defs1" />
  <sodipodi:namedview
     id="namedview1"
     pagecolor="#ffffff"
     bordercolor="#000000"
     borderopacity="0.25"
     inkscape:showpageshadow="2"
     inkscape:pageopacity="0.0"
     inkscape:pagecheckerboard="0"
     inkscape:deskcolor="#d1d1d1"
     inkscape:zoom="17"
     inkscape:cx="41.647059"
     inkscape:cy="34.352941"
     inkscape:window-width="1440"
     inkscape:window-height="740"
     inkscape:window-x="-6"
     inkscape:window-y="-6"
     inkscape:window-maximized="1"
     inkscape:current-layer="g1"
     showguides="true">
    <sodipodi:guide
       position="30.294118,36.117647"
       orientation="0,-1"
       id="guide1"
       inkscape:locked="false" />
    <sodipodi:guide
       position="44.294118,29.411765"
       orientation="0,-1"
       id="guide2"
       inkscape:locked="false" />
  </sodipodi:namedview>
  <g
     inkscape:groupmode="layer"
     inkscape:label="Image"
     id="g1">
    <path
       style="fill:#000000"
       d="m 36.063485,50.724413 c -0.279905,-0.325956 -1.389315,-1.888648 -2.465357,-3.472648 -4.440303,-6.5364 -6.050201,-8.142358 -11.457734,-11.429698 -2.247383,-1.366225 -3.478475,-1.886476 -5.383219,-2.274908 -2.683751,-0.547295 -4.443559,-1.391956 -4.600761,-2.208242 -0.154092,-0.800138 2.356077,-2.085843 5.234537,-2.681121 1.898888,-0.392698 3.334425,-0.97961 5.688331,-2.325643 3.354672,-1.918301 4.659205,-3.191948 7.432145,-7.256182 0.834641,-1.223313 2.455948,-3.484206 3.602906,-5.024206 l 2.085377,-2.8 h 3.467204 3.467204 l 0.04483,2.16 c 0.02466,1.188 0.132658,5.184 0.24,8.88 l 0.19517,6.72 1.461176,0.950471 c 5.061461,0.146159 5.151155,2.306336 0.106048,2.344907 -1.174677,0.009 -1.403923,0.809021 -1.716753,1.121097 -0.195033,6.600756 -0.29157,8.948369 -0.298824,10.543529 l -0.03165,6.96 h -1.875337 c -1.031436,0 -2.507822,0.08669 -3.280858,0.192648 -1.12864,0.154697 -1.505775,0.0759 -1.914438,-0.4 z"
       id="path1"
       sodipodi:nodetypes="ssssssssscccssccscscssss" />
    <rect
       style="fill:#000000;stroke-opacity:0.454936;fill-opacity:0.75581396"
       id="rect1"
       width="1.7058823"
       height="11.647058"
       x="46"
       y="25.529411" />
  </g>
</svg>
