<?xml version="1.0" encoding="UTF-8" standalone="no"?>
<!-- Created with Inkscape (http://www.inkscape.org/) -->

<svg
   version="1.1"
   id="svg1"
   width="64"
   height="64"
   viewBox="0 0 64 64"
   sodipodi:docname="iskanderk.svg"
   inkscape:version="1.3.2 (091e20e, 2023-11-25, custom)"
   xmlns:inkscape="http://www.inkscape.org/namespaces/inkscape"
   xmlns:sodipodi="http://sodipodi.sourceforge.net/DTD/sodipodi-0.dtd"
   xmlns="http://www.w3.org/2000/svg"
   xmlns:svg="http://www.w3.org/2000/svg">
  <defs
     id="defs1" />
  <sodipodi:namedview
     id="namedview1"
     pagecolor="#ffffff"
     bordercolor="#000000"
     borderopacity="0.25"
     inkscape:showpageshadow="2"
     inkscape:pageopacity="0.0"
     inkscape:pagecheckerboard="0"
     inkscape:deskcolor="#d1d1d1"
     showguides="true"
     inkscape:zoom="4.25"
     inkscape:cx="47.764706"
     inkscape:cy="40.705882"
     inkscape:window-width="1440"
     inkscape:window-height="740"
     inkscape:window-x="-6"
     inkscape:window-y="-6"
     inkscape:window-maximized="1"
     inkscape:current-layer="g1">
    <sodipodi:guide
       position="37.289484,21.989538"
       orientation="0,-1"
       id="guide1"
       inkscape:locked="false" />
    <sodipodi:guide
       position="50.287771,21.178445"
       orientation="1,0"
       id="guide2"
       inkscape:locked="false" />
    <sodipodi:guide
       position="45.857955,17.850884"
       orientation="0,-1"
       id="guide3"
       inkscape:locked="false" />
    <sodipodi:guide
       position="52.19853,23.397059"
       orientation="1,0"
       id="guide4"
       inkscape:locked="false" />
    <sodipodi:guide
       position="60.977561,21.552796"
       orientation="1,0"
       id="guide5"
       inkscape:locked="false" />
    <sodipodi:guide
       position="61.663871,21.36562"
       orientation="1,0"
       id="guide6"
       inkscape:locked="false" />
  </sodipodi:namedview>
  <g
     inkscape:groupmode="layer"
     inkscape:label="Image"
     id="g1">
    <path
       style="fill:#000000"
       d="m 61.181209,37.091379 -0.02174,-2.715903 c -2.996121,0.01863 -5.653462,0.0019 -8.732995,0.01768 l -0.0037,1.091218 c -0.0032,0.943402 0.0068,1.12457 -0.813824,1.113276 -1.068562,-0.01471 -1.078582,-0.0041 -1.07417,-2.193553 0,0 -4.81982,-0.04655 -22.82651,-0.04694 -21.0655903,-4.6e-4 -22.8851998,-0.04306 -23.9200007,-0.56 -0.9067772,-0.452986 -1.12,-0.742265 -1.12,-1.519503 0,-0.777238 0.2132228,-1.066517 1.12,-1.519503 1.0270619,-0.513075 2.6335628,-0.559396 19.3600007,-0.558215 12.01786,8.48e-4 18.792056,0.05398 18.792056,0.05398 0.897411,0.199557 1.461752,1.014746 2.332702,-0.0018 0,0 1.72114,-0.03366 3.42562,-0.03366 2.934226,0 2.818237,0.0055 2.818237,0.0055 0.0076,-2.601492 0.01369,-2.614125 0.937648,-2.607141 0.972856,0.0074 0.973726,0.0069 0.974664,1.220797 l 9.27e-4,1.42877 c 2.959012,-0.02235 5.832584,-0.01553 8.768734,-0.01553 l 0.01547,-3.101764 0.684585,-0.0062 c 0,0 -0.01626,1.863807 -0.01812,3.095294 0.473599,0.423954 0.648972,0.89539 0.660119,1.972973 0.01375,1.32927 -0.146055,1.745755 -0.63802,2.19938 l -0.0022,2.667059 z"
       id="path1"
       sodipodi:nodetypes="cccssssssssscsssscccccsccc" />
  </g>
</svg>
