<?xml version="1.0" encoding="UTF-8" standalone="no"?>
<!-- Created with Inkscape (http://www.inkscape.org/) -->

<svg
   version="1.1"
   id="svg1"
   width="64"
   height="64"
   viewBox="0 0 64 64"
   sodipodi:docname="italmas.svg"
   inkscape:version="1.3.2 (091e20e, 2023-11-25, custom)"
   xmlns:inkscape="http://www.inkscape.org/namespaces/inkscape"
   xmlns:sodipodi="http://sodipodi.sourceforge.net/DTD/sodipodi-0.dtd"
   xmlns="http://www.w3.org/2000/svg"
   xmlns:svg="http://www.w3.org/2000/svg">
  <defs
     id="defs1" />
  <sodipodi:namedview
     id="namedview1"
     pagecolor="#ffffff"
     bordercolor="#000000"
     borderopacity="0.25"
     inkscape:showpageshadow="2"
     inkscape:pageopacity="0.0"
     inkscape:pagecheckerboard="0"
     inkscape:deskcolor="#d1d1d1"
     showgrid="false"
     inkscape:zoom="8.5"
     inkscape:cx="32"
     inkscape:cy="32"
     inkscape:window-width="1440"
     inkscape:window-height="740"
     inkscape:window-x="-6"
     inkscape:window-y="-6"
     inkscape:window-maximized="1"
     inkscape:current-layer="g1" />
  <g
     inkscape:groupmode="layer"
     inkscape:label="Image"
     id="g1">
    <path
       style="fill:#000000"
       d="m 37.148265,51.929412 c -0.724298,-2.332 -1.622055,-5.248 -1.995016,-6.48 -0.372961,-1.232 -0.830546,-2.405792 -1.016856,-2.608426 -0.18631,-0.202635 -5.090745,-2.316645 -10.898745,-4.697801 l -10.56,-4.329374 v -2.284399 -2.284399 l 10.56,-4.329374 c 5.808,-2.381156 10.712435,-4.495166 10.898745,-4.697801 0.18631,-0.202634 0.643895,-1.376426 1.016856,-2.608426 0.372961,-1.232 1.270718,-4.148 1.995016,-6.48 L 38.46517,6.8894116 h 5.136267 5.136267 l -0.190903,1.52 c -0.104997,0.836 -0.415052,3.8601674 -0.68901,6.7203714 -0.453649,4.736232 -0.452525,5.521642 0.0126,8.8 0.771967,5.441067 0.747158,5.359629 1.632681,5.359629 0.745663,0 0.774574,0.08361 0.774574,2.24 0,2.156392 -0.02891,2.24 -0.774574,2.24 -0.885523,0 -0.860714,-0.08144 -1.632681,5.359629 -0.465127,3.278358 -0.466251,4.063768 -0.0126,8.8 0.273958,2.860204 0.584013,5.884371 0.68901,6.720371 l 0.190903,1.52 H 43.601437 38.46517 Z"
       id="path1" />
  </g>
</svg>
