<?xml version="1.0" encoding="UTF-8" standalone="no"?>
<!-- Created with Inkscape (http://www.inkscape.org/) -->

<svg
   version="1.1"
   id="svg1"
   width="64"
   height="64"
   viewBox="0 0 64 64"
   sodipodi:docname="mig31k.svg"
   inkscape:version="1.3.2 (091e20e, 2023-11-25, custom)"
   xmlns:inkscape="http://www.inkscape.org/namespaces/inkscape"
   xmlns:sodipodi="http://sodipodi.sourceforge.net/DTD/sodipodi-0.dtd"
   xmlns="http://www.w3.org/2000/svg"
   xmlns:svg="http://www.w3.org/2000/svg">
  <defs
     id="defs1" />
  <sodipodi:namedview
     id="namedview1"
     pagecolor="#ffffff"
     bordercolor="#000000"
     borderopacity="0.25"
     inkscape:showpageshadow="2"
     inkscape:pageopacity="0.0"
     inkscape:pagecheckerboard="0"
     inkscape:deskcolor="#d1d1d1"
     showguides="true"
     inkscape:zoom="6.0104076"
     inkscape:cx="11.14733"
     inkscape:cy="36.270418"
     inkscape:window-width="1440"
     inkscape:window-height="740"
     inkscape:window-x="-6"
     inkscape:window-y="-6"
     inkscape:window-maximized="1"
     inkscape:current-layer="g1">
    <sodipodi:guide
       position="17.176471,33.764706"
       orientation="1,0"
       id="guide1"
       inkscape:locked="false" />
  </sodipodi:namedview>
  <g
     inkscape:groupmode="layer"
     inkscape:label="Image"
     id="g1">
    <path
       style="fill:#000000"
       d="m 40.74353,50.424824 c 0,-0.351734 0.793597,-0.674236 1.659127,-0.674236 0.521974,0 0.255311,-0.447689 -1.381891,-2.32 -5.339244,-6.105979 -7.48562,-8.429702 -8.094315,-8.763116 -0.364607,-0.199714 -1.454921,-0.46379 -2.422921,-0.586836 -0.968,-0.123046 -2.624,-0.44771 -3.68,-0.721475 -1.056,-0.273765 -3.648,-0.585689 -5.76,-0.693164 l -3.898824,-0.224821 c -0.01193,-0.65773 -0.0064,-1.315437 -0.0025,-1.973198 L 13.926691,34.268527 C 10.92061,34.083219 6.3892344,33.383038 4.4257557,32.84714 3.4750725,32.587668 3.4794614,32.582842 5.0186161,32.195279 8.2208543,31.388946 11.871541,30.882191 14.519274,30.876484 l 2.618097,0.02351 c 0.02535,-0.726727 0.01777,-1.453389 0.01188,-2.180299 l 3.803607,-0.248868 c 2.172036,-0.142115 5.017702,-0.505531 6.321855,-0.837204 1.304153,-0.331672 2.93362,-0.603041 3.621037,-0.603041 0.687417,0 1.492396,-0.129807 1.788843,-0.28846 0.562656,-0.301125 10.059311,-10.731502 10.245599,-11.252959 0.05867,-0.16422 -0.409334,-0.298581 -1.04,-0.298581 -0.630667,0 -1.146667,-0.144 -1.146667,-0.32 0,-0.198621 1.76,-0.32 4.64,-0.32 4.413676,0 5.030059,0.115874 4.340656,0.816 -0.537867,0.546232 -3.498752,12.944 -3.091339,12.944 0.753472,0 2.698213,-1.202625 5.843949,-3.613889 1.769509,-1.356361 3.356313,-2.466111 3.526231,-2.466111 0.341266,0 1.700503,1.355492 1.700503,1.695817 0,0.118013 -0.419136,0.900732 -0.931414,1.739376 -0.512277,0.838644 -0.980277,1.884807 -1.04,2.324807 -0.09728,0.716691 0.01638,0.810343 1.091414,0.899317 l 1.2,0.09932 v 3.66068 3.660683 h -1.286097 c -1.239393,0 -1.27865,0.03196 -1.081034,0.88 0.112785,0.484 0.619528,1.540607 1.126097,2.348015 0.506569,0.807408 0.921034,1.610307 0.921034,1.78422 0,0.366225 -1.360405,1.707765 -1.73178,1.707765 -0.137792,0 -1.496511,-0.977519 -3.019376,-2.172263 -3.896901,-3.057267 -4.670064,-3.567981 -5.719169,-3.777802 l -0.924187,-0.184837 1.520431,6.187451 c 0.836237,3.403098 1.663527,6.423926 1.838422,6.712951 0.174896,0.289026 0.230467,0.613026 0.123492,0.72 -0.31196,0.311961 -9.047833,0.223843 -9.047833,-0.09126 z"
       id="path1"
       sodipodi:nodetypes="sssssssccssssccsssssssssssssssscccssssssscsssss" />
  </g>
</svg>
