<?xml version="1.0" encoding="UTF-8" standalone="no"?>
<!-- Created with Inkscape (http://www.inkscape.org/) -->

<svg
   version="1.1"
   id="svg1"
   width="64"
   height="64"
   viewBox="0 0 64 64"
   sodipodi:docname="balist.svg"
   inkscape:version="1.3.2 (091e20e, 2023-11-25, custom)"
   xmlns:inkscape="http://www.inkscape.org/namespaces/inkscape"
   xmlns:sodipodi="http://sodipodi.sourceforge.net/DTD/sodipodi-0.dtd"
   xmlns="http://www.w3.org/2000/svg"
   xmlns:svg="http://www.w3.org/2000/svg">
  <defs
     id="defs1" />
  <sodipodi:namedview
     id="namedview1"
     pagecolor="#ffffff"
     bordercolor="#000000"
     borderopacity="0.25"
     inkscape:showpageshadow="2"
     inkscape:pageopacity="0.0"
     inkscape:pagecheckerboard="0"
     inkscape:deskcolor="#d1d1d1"
     inkscape:zoom="8.5"
     inkscape:cx="32"
     inkscape:cy="32"
     inkscape:window-width="1440"
     inkscape:window-height="740"
     inkscape:window-x="-6"
     inkscape:window-y="-6"
     inkscape:window-maximized="1"
     inkscape:current-layer="g1" />
  <g
     inkscape:groupmode="layer"
     inkscape:label="Image"
     id="g1">
    <path
       style="fill:#000000"
       d="M 57.162353,39.89128 C 53.978388,39.171337 53.212038,39.13086 42.534954,39.118708 32.607918,39.107408 30.0256,38.991518 20.827405,38.144506 L 10.387255,37.18313 6.4148039,35.034081 c -2.184848,-1.181976 -3.972451,-2.233767 -3.972451,-2.337311 0,-0.103544 1.7906243,-1.2233 3.9791651,-2.488347 l 3.979165,-2.300084 10.457307,-0.801228 c 8.35155,-0.639887 12.705957,-0.801228 21.624223,-0.801228 11.553811,0 11.380912,0.01407 17.80014,-1.448183 0.672816,-0.153262 0.72,-0.05876 0.72,1.442086 0,1.392764 0.08501,1.606097 0.64,1.606097 0.554667,0 0.64,0.213333 0.64,1.6 0,1.386667 -0.08533,1.6 -0.64,1.6 -0.554667,0 -0.64,0.213333 -0.64,1.6 0,1.386667 0.08533,1.6 0.64,1.6 0.545185,0 0.64,0.213333 0.64,1.44 0,1.226667 -0.09481,1.44 -0.64,1.44 -0.562424,0 -0.64,0.213333 -0.64,1.76 0,0.968 -0.108,1.747657 -0.24,1.732572 -0.132,-0.01508 -1.752,-0.369314 -3.6,-0.787175 z"
       id="path1" />
  </g>
</svg>
