<?xml version="1.0" encoding="UTF-8" standalone="no"?>
<!-- Created with Inkscape (http://www.inkscape.org/) -->

<svg
   version="1.1"
   id="svg1"
   width="64"
   height="64"
   viewBox="0 0 64 64"
   sodipodi:docname="orlan10n.svg"
   inkscape:version="1.3.2 (091e20e, 2023-11-25, custom)"
   xmlns:inkscape="http://www.inkscape.org/namespaces/inkscape"
   xmlns:sodipodi="http://sodipodi.sourceforge.net/DTD/sodipodi-0.dtd"
   xmlns="http://www.w3.org/2000/svg"
   xmlns:svg="http://www.w3.org/2000/svg">
  <defs
     id="defs1" />
  <sodipodi:namedview
     id="namedview1"
     pagecolor="#ffffff"
     bordercolor="#000000"
     borderopacity="0.25"
     inkscape:showpageshadow="2"
     inkscape:pageopacity="0.0"
     inkscape:pagecheckerboard="0"
     inkscape:deskcolor="#d1d1d1"
     showguides="true"
     inkscape:zoom="8.5"
     inkscape:cx="32"
     inkscape:cy="32"
     inkscape:window-width="1440"
     inkscape:window-height="740"
     inkscape:window-x="-6"
     inkscape:window-y="-6"
     inkscape:window-maximized="1"
     inkscape:current-layer="g1">
    <sodipodi:guide
       position="35.647059,32"
       orientation="0,-1"
       id="guide1"
       inkscape:locked="false" />
  </sodipodi:namedview>
  <g
     inkscape:groupmode="layer"
     inkscape:label="Image"
     id="g1">
    <path
       style="fill:#000000;stroke-width:0.898157"
       d="m 19.220777,57.971449 c -0.174555,-0.338107 -0.354376,-4.855892 -0.451334,-11.339302 -0.08865,-5.927501 -0.219022,-11.073558 -0.289724,-11.435684 -0.121057,-0.620037 -0.266907,-0.658411 -2.502446,-0.658411 -1.847129,0 -2.47917,0.109128 -2.84831,0.491791 -0.444359,0.460635 -0.491231,0.460635 -0.739908,0 -0.205484,-0.380632 -0.673295,-0.491791 -2.069671,-0.491791 -0.9922986,0 -1.8826869,-0.131683 -1.9786415,-0.292628 -0.3810758,-0.639179 -0.6614909,-0.236851 -0.5098913,0.731568 0.141214,0.902073 0.088609,1.024196 -0.4411773,1.024196 -0.539331,0 -0.6015092,-0.162841 -0.6015092,-1.575321 0,-1.329219 -0.088197,-1.59923 -0.5645738,-1.728366 -0.7203556,-0.195278 -0.7291073,-0.973848 -0.015393,-1.369806 0.4018653,-0.222949 0.5722369,-0.676348 0.6351454,-1.690269 0.064759,-1.043717 0.2078584,-1.409588 0.5799716,-1.48284 0.3979857,-0.07835 0.494002,0.112078 0.494002,0.979714 0,0.907439 0.077761,1.045207 0.494002,0.875237 0.2717012,-0.110948 1.1926621,-0.278027 2.0465801,-0.371287 0.905985,-0.09895 1.685189,-0.356216 1.871,-0.617751 0.283953,-0.399671 0.370171,-0.394545 0.796451,0.04734 0.368189,0.381676 0.988476,0.49554 2.699502,0.49554 1.247262,0 2.301821,-0.134772 2.404691,-0.307315 0.100771,-0.169022 0.301099,-5.394788 0.445174,-11.612814 0.144073,-6.21802 0.318144,-11.3637437 0.386824,-11.434938 0.323581,-0.3354347 2.710504,-0.5854057 4.154451,-0.4350758 1.109406,0.1155011 1.66332,0.3137147 1.787005,0.6394633 0.189385,0.4987875 0.668231,14.3066955 0.687203,19.8160095 l 0.01119,3.249439 5.434023,0.208038 c 2.988711,0.11442 7.720544,0.394258 10.515185,0.621859 2.79464,0.2276 5.494007,0.416525 5.998597,0.419833 l 0.917432,0.006 v -3.475695 c 0,-3.885025 0.08664,-4.083188 1.894366,-4.333093 0.817212,-0.112973 1.25285,0.0019 1.845935,0.486486 0.769427,0.628749 0.776289,0.665267 0.776289,4.131885 0,3.485114 0.0026,3.498543 0.724093,3.782914 0.398251,0.156962 1.22394,0.285386 1.834865,0.285386 0.610923,0 1.11077,0.131682 1.11077,0.292626 0,0.160946 -0.403826,0.292628 -0.897392,0.292628 -0.493563,0 -1.319252,0.158135 -1.834864,0.351412 l -0.937478,0.351431 v 3.588759 c 0,4.124959 -0.04171,4.194604 -2.512093,4.194604 -1.862864,0 -2.004497,-0.310431 -2.004497,-4.39342 v -3.261375 l -0.776289,0.15968 C 46.3245,33.489621 36.283917,34.21027 31.226785,34.37693 c -2.783196,0.09172 -5.112518,0.220839 -5.17627,0.286925 -0.06375,0.06609 -0.231866,5.233349 -0.373589,11.482801 -0.304296,13.418585 0.01286,12.386835 -3.807755,12.386835 -2.036844,0 -2.397778,-0.0766 -2.648394,-0.56203 z"
       id="path1" />
  </g>
</svg>
