<?xml version="1.0" encoding="UTF-8" standalone="no"?>
<!-- Created with Inkscape (http://www.inkscape.org/) -->

<svg
   version="1.1"
   id="svg1"
   width="64"
   height="64"
   viewBox="0 0 64 64"
   sodipodi:docname="rszv.svg"
   inkscape:version="1.3.2 (091e20e, 2023-11-25, custom)"
   xmlns:inkscape="http://www.inkscape.org/namespaces/inkscape"
   xmlns:sodipodi="http://sodipodi.sourceforge.net/DTD/sodipodi-0.dtd"
   xmlns="http://www.w3.org/2000/svg"
   xmlns:svg="http://www.w3.org/2000/svg">
  <defs
     id="defs1" />
  <sodipodi:namedview
     id="namedview1"
     pagecolor="#ffffff"
     bordercolor="#000000"
     borderopacity="0.25"
     inkscape:showpageshadow="2"
     inkscape:pageopacity="0.0"
     inkscape:pagecheckerboard="0"
     inkscape:deskcolor="#d1d1d1"
     inkscape:zoom="34"
     inkscape:cx="21.5"
     inkscape:cy="39.294118"
     inkscape:window-width="1440"
     inkscape:window-height="740"
     inkscape:window-x="-6"
     inkscape:window-y="-6"
     inkscape:window-maximized="1"
     inkscape:current-layer="g1"
     showguides="true">
    <sodipodi:guide
       position="14.941176,22.705882"
       orientation="0,-1"
       id="guide3"
       inkscape:locked="false" />
    <sodipodi:guide
       position="40.588235,33.882353"
       orientation="1,0"
       id="guide4"
       inkscape:locked="false" />
    <sodipodi:guide
       position="51.647059,28.235294"
       orientation="1,0"
       id="guide5"
       inkscape:locked="false" />
    <sodipodi:guide
       position="14.588235,27.058824"
       orientation="1,0"
       id="guide6"
       inkscape:locked="false" />
    <sodipodi:guide
       position="33.400397,27.979149"
       orientation="0,-1"
       id="guide7"
       inkscape:locked="false" />
    <sodipodi:guide
       position="18.093615,38.294589"
       orientation="0,-1"
       id="guide1"
       inkscape:locked="false" />
  </sodipodi:namedview>
  <g
     inkscape:groupmode="layer"
     inkscape:label="Image"
     id="g1">
    <path
       id="path1"
       style="fill:#000000"
       d="m 37.939453,17.763672 c -0.33398,-0.01453 -0.476066,0.02165 -0.535156,0.08789 -0.253559,0.284244 -0.960022,3.715931 -0.798828,3.88086 0.05562,0.05691 4.567899,0.98701 5.857422,1.253906 0.06254,2.108706 0.02344,3.058552 0.02344,6.220703 -1.331022,0.131828 -1.258926,0.08135 -2.599609,0.02539 -1.632155,-0.06812 -1.839844,0.06072 -1.839844,-0.46875 0,-0.546653 -0.192593,-0.581324 -2.259766,-0.394531 -1.838075,0.166093 -2.332286,0.111726 -2.640625,-0.292969 -0.21899,-0.287429 -0.988792,-0.53888 -1.820312,-0.59375 l -1.439453,-0.09375 -0.06055,-2.560547 c -0.03315,-1.407998 -0.06923,-2.722393 -0.08008,-2.921875 -0.02504,-0.46052 -1.50983,-0.757604 -2.658203,-0.53125 -0.84376,0.166311 -0.88086,0.253718 -0.88086,2.107422 0,2.164165 -0.342667,2.265836 -0.52539,0.15625 -0.181679,-2.097508 -0.250928,-2.168304 -2.105469,-2.183594 -0.929522,-0.0076 -2.605485,0.0048 -3.324219,0.002 -1.662078,-0.0065 -2.471708,0.06363 -2.583984,0.970703 -0.03268,0.264 -0.270886,1.055768 -0.529297,1.759766 l -0.470703,1.28125 -3.023438,0.21875 c -3.447826,0.25001 -6.8545126,1.038534 -7.6777341,1.777344 -0.3753858,0.336893 -0.5634925,0.986997 -0.5703125,1.972656 -0.0056,0.80872 0.038026,1.669707 0.019531,2.361328 -0.3331528,0.02611 -0.2637871,0.03837 -0.734375,0.0332 0.010154,0.388883 -0.032387,0.723151 -0.023437,1.296875 0.86189,1.95e-4 1.7324528,-0.02505 2.5957031,0.02344 0.9280738,0.594858 1.1548942,1.112698 1.7597657,1.699218 l 10.8261721,-0.03711 c 0.1719,-0.144019 0.307513,-0.133798 0.417968,0.04492 0.281781,0.455934 3.919745,0.0204 4.509766,0.04883 0.569923,0.02746 0.663796,0.199563 0.657624,1.077768 0.911652,0.02277 1.641234,0.02088 6.505635,0.02127 C 39.975005,36.007877 47.80545,36 55.765625,36 c 0.0399,-0.92928 0.160695,-1.096672 0.648437,-1.025391 0.45951,0.06716 0.762863,0.50684 1.054688,1.533203 l 0.410156,1.439454 -0.160156,-1.359375 c -0.166227,-1.4197 -0.169839,-1.414155 1.449219,-1.484375 0.630601,-0.02735 0.782746,-0.188317 0.722656,-0.75586 -0.04192,-0.395998 0.06631,-0.71875 0.240234,-0.71875 0.173925,0 0.316407,-0.144312 0.316407,-0.320312 0,-0.176 -0.355256,-0.320313 -0.789063,-0.320313 -0.461234,0 -0.930564,-0.26637 -1.130859,-0.640625 -0.200295,-0.374253 -0.669624,-0.638672 -1.13086,-0.638672 -0.948058,0 -1.04562,-0.516645 -0.15039,-0.800781 0.969791,-0.3078 0.8578,-1.694218 -0.158203,-1.949219 -0.615751,-0.154542 -0.800782,-0.407935 -0.800782,-1.099609 0,-0.494253 -0.169792,-0.954389 -0.376953,-1.023437 -0.207397,-0.06913 -0.225775,-0.279503 -0.134765,-0.515626 0.121151,-0.314334 0.130983,-0.531361 0.572265,-0.451171 0.762907,0.138626 0.894232,0.160392 1.761719,0.361328 0.205054,-1.105012 0.326752,-1.84726 0.419922,-2.369141 0.165338,-0.92608 0.314453,-2.189453 0.314453,-2.189453 0,0 0.650404,0.143784 -9.755859,-1.908203 -7.414682,-1.462087 -10.146498,-1.956399 -11.148438,-2 z"
       sodipodi:nodetypes="sssccssssccccsssccscccssccccccsscscscccssssssssssssscscss" />
    <circle
       style="fill:#000000"
       id="path2"
       cx="14.529051"
       cy="36.804714"
       r="4.5" />
    <circle
       style="fill:#000000"
       id="path2-8"
       cx="40.634876"
       cy="36.766182"
       r="4.5" />
    <circle
       style="fill:#000000"
       id="path2-6"
       cx="51.572487"
       cy="36.79055"
       r="4.5" />
  </g>
</svg>
