<?xml version="1.0" encoding="UTF-8" standalone="no"?>
<!-- Created with Inkscape (http://www.inkscape.org/) -->

<svg
   version="1.1"
   id="svg1"
   width="64"
   height="64"
   viewBox="0 0 64 64"
   sodipodi:docname="scout1.svg"
   inkscape:version="1.4.2 (ebf0e940, 2025-05-08)"
   xmlns:inkscape="http://www.inkscape.org/namespaces/inkscape"
   xmlns:sodipodi="http://sodipodi.sourceforge.net/DTD/sodipodi-0.dtd"
   xmlns="http://www.w3.org/2000/svg"
   xmlns:svg="http://www.w3.org/2000/svg">
  <defs
     id="defs1" />
  <sodipodi:namedview
     id="namedview1"
     pagecolor="#ffffff"
     bordercolor="#000000"
     borderopacity="0.25"
     inkscape:showpageshadow="2"
     inkscape:pageopacity="0.0"
     inkscape:pagecheckerboard="0"
     inkscape:deskcolor="#d1d1d1"
     showguides="true"
     inkscape:zoom="11.327722"
     inkscape:cx="28.072723"
     inkscape:cy="46.655454"
     inkscape:window-width="1440"
     inkscape:window-height="900"
     inkscape:window-x="0"
     inkscape:window-y="0"
     inkscape:window-maximized="0"
     inkscape:current-layer="g1">
    <sodipodi:guide
       position="6.5307379,34.069959"
       orientation="0,-1"
       id="guide9"
       inkscape:locked="false" />
    <sodipodi:guide
       position="15.200674,30.562111"
       orientation="0,-1"
       id="guide10"
       inkscape:locked="false" />
    <sodipodi:guide
       position="30.335247,42.09121"
       orientation="1,0"
       id="guide11"
       inkscape:locked="false" />
    <sodipodi:guide
       position="34.74756,54.741999"
       orientation="1,0"
       id="guide12"
       inkscape:locked="false" />
    <sodipodi:guide
       position="57.989117,29.500891"
       orientation="0,-1"
       id="guide13"
       inkscape:locked="false" />
  </sodipodi:namedview>
  <g
     inkscape:groupmode="layer"
     inkscape:label="Image"
     id="g1">
    <path
       id="path1"
       style="fill:#000000"
       d="M 46.388672 34.478516 C 46.343272 34.93918 46.520436 35.277212 45.273438 37.939453 C 43.54708 41.625086 40.710745 44.100166 37.285156 45.210938 C 35.955877 45.641966 35.176682 45.910795 34.720703 46.173828 L 34.728516 48.855469 C 35.285377 48.935207 36.257255 48.721322 37.716797 48.203125 C 40.556758 47.194823 42.673523 45.842 44.650391 43.771484 C 48.029546 40.23225 49.059191 35.901384 49.027344 34.488281 L 46.388672 34.478516 z " />
    <path
       id="path5"
       style="fill:#000000"
       d="M 10.673828 34.197266 C 10.653988 34.222166 10.639166 34.248631 10.628906 34.275391 C 10.26919 35.212794 11.740303 40.026036 12.326172 41.119141 C 14.112315 45.010109 16.802812 48.38411 20.484375 50.685547 C 23.157971 52.3941 23.493437 52.557249 25.632812 53.191406 C 26.673908 53.500009 27.669703 53.796523 27.845703 53.851562 C 28.021703 53.906602 28.777391 53.962666 29.525391 53.976562 L 30.326172 53.992188 L 30.326172 51.300781 C 30.074736 51.171992 29.722111 51.123047 29.238281 51.123047 C 28.581309 51.123047 25.646012 50.298164 24.804688 49.876953 C 23.084097 49.015536 21.368557 47.971339 20.542969 47.283203 C 18.40396 45.310249 16.148054 43.294591 15.220703 40.478516 C 13.090095 35.856482 13.625792 34.747149 13.306641 34.222656 L 10.673828 34.197266 z M 16.089844 34.25 C 15.98554 34.397584 15.936091 34.609481 15.900391 34.921875 C 15.787163 35.912717 17.76545 40.702854 18.875 42.099609 C 19.395416 42.754734 21.44479 44.817061 22.283203 45.529297 C 23.199461 46.307663 25.396931 47.493092 27.365234 48.269531 C 28.157234 48.581952 29.237625 48.810657 29.765625 48.779297 C 30.004552 48.765107 30.186526 48.744119 30.326172 48.699219 L 30.326172 46.005859 C 30.038539 45.804045 29.619665 45.681555 29.041016 45.603516 C 24.826828 45.03517 19.691393 39.901688 19.123047 35.6875 C 19.032557 35.016508 18.880776 34.559806 18.617188 34.273438 L 16.089844 34.25 z M 21.951172 34.306641 C 21.930072 34.436853 21.925781 34.602466 21.925781 34.814453 C 21.925781 36.946545 24.407478 40.275383 27.189453 41.871094 C 28.077787 42.380633 29.273703 42.797128 29.845703 42.798828 C 30.039449 42.799391 30.197632 42.797726 30.326172 42.785156 L 30.326172 40.175781 C 30.111646 40.0082 29.836483 39.921875 29.503906 39.921875 C 28.73463 39.921875 24.804688 35.959518 24.804688 35.183594 C 24.804686 34.833853 24.698462 34.547123 24.494141 34.330078 L 21.951172 34.306641 z M 43.167969 34.455078 L 40.425781 34.472656 C 40.283279 34.745709 40.133818 35.145969 40.050781 35.494141 C 39.687102 37.019046 37.43445 38.551829 34.742188 40.230469 L 34.751953 42.8125 C 34.755181 42.812501 34.758464 42.8125 34.761719 42.8125 C 36.932975 42.8125 43.141795 39.019178 43.167969 34.455078 z " />
    <path
       id="path4"
       style="fill:#000000"
       d="m 30.259766,10.263672 c -1.085862,-0.02084 -4.464552,0.853467 -6.232422,1.662109 -2.703012,0.927772 -4.873846,2.745182 -7.013672,4.601563 -1.348522,1.264571 -4.362646,5.519292 -4.378906,6.18164 -1.146555,2.139915 -1.670797,3.753214 -2.113282,6.8125 -0.01517,0.104918 -0.133058,0.207855 -0.08398,0.353516 l 0.105469,0.0293 2.859375,0.03906 c 0.02977,-0.08343 0.0394,-0.09945 0.06055,-0.201171 1.100124,-5.290719 2.371462,-7.76645 5.61914,-10.939454 1.85019,-1.801794 3.388858,-3.401499 5.882813,-4.160156 1.407417,-0.630144 2.761076,-1.142781 4.304687,-1.30664 0.447093,-0.09589 0.770057,-0.166297 1.003907,-0.244141 z"
       sodipodi:nodetypes="csscsccccccccc" />
    <path
       id="path2"
       style="fill:#000000"
       d="M 32.484375 8.8867188 C 32.30645 8.8867188 32.129931 8.9494128 31.925781 9.078125 C 31.41826 9.398107 31.357607 10.253382 31.279297 18.197266 L 31.193359 26.962891 L 29.925781 27.689453 C 29.22864 28.088788 28.330976 28.986238 27.931641 29.685547 L 27.205078 30.957031 C 21.502665 30.940891 15.674086 30.919233 10.097656 30.939453 C 9.004703 31.069956 8.9986647 33.268146 10.130859 33.376953 C 10.790363 33.440333 15.654755 33.388136 18.5 33.447266 C 26.855214 33.620882 27.336372 33.565495 27.519531 34.142578 C 27.801989 35.032526 29.64897 36.928991 30.484375 37.185547 L 31.205078 37.40625 L 31.205078 46.121094 C 31.205078 52.472322 31.309978 54.938884 31.589844 55.21875 C 32.01613 55.645036 32.5001 55.699714 33.259766 55.408203 C 33.704588 55.237508 33.765625 54.132995 33.765625 46.289062 C 33.765625 38.576017 33.830155 37.363281 34.244141 37.363281 C 34.949046 37.363281 37.263378 35.161774 37.484375 34.28125 L 37.673828 33.523438 L 46.253906 33.523438 C 50.972431 33.523438 55.06145 33.434958 55.339844 33.328125 C 56.007352 33.071978 56.007352 31.412397 55.339844 31.15625 C 55.061449 31.049424 50.992624 30.962891 46.298828 30.962891 L 37.763672 30.962891 L 37.113281 29.613281 C 36.643862 28.639308 36.089558 28.082939 35.119141 27.615234 L 33.775391 26.96875 L 33.689453 18.199219 C 33.61249 10.251772 33.552513 9.398151 33.044922 9.078125 C 32.840772 8.949413 32.6623 8.8867188 32.484375 8.8867188 z M 34.919922 10.25 C 34.823262 10.2467 34.739461 10.249823 34.671875 10.257812 L 34.681641 13.072266 L 36.085938 13.349609 C 37.185935 13.566649 38.967324 14.16282 40.044922 14.673828 C 41.254247 15.222614 42.469931 15.498053 43.347656 16.396484 C 44.639602 16.806531 48.307977 20.90776 49.398438 23.160156 C 50.975456 26.417578 51.67358 28.477389 51.685547 29.921875 L 54.490234 29.931641 C 54.584824 29.52312 54.496534 28.898439 54.271484 27.960938 C 53.210674 23.542485 51.356761 19.961069 48.597656 16.998047 C 47.306003 15.610931 42.872926 12.402344 42.248047 12.402344 C 42.048444 12.402344 41.318058 12.128644 40.625 11.794922 C 39.192678 11.105229 36.078756 10.289154 34.919922 10.25 z M 35.261719 15.652344 C 35.225989 15.652112 35.192813 15.654903 35.164062 15.658203 C 34.970067 15.680373 34.815538 15.706857 34.691406 15.748047 L 34.699219 18.462891 C 35.06206 18.674517 35.629953 18.821597 36.490234 18.980469 C 37.190994 19.109882 38.196535 19.44826 38.724609 19.730469 C 44.659461 23.260124 45.978196 27.549449 46.226562 29.861328 L 49.123047 29.912109 C 49.078707 29.318213 49.04671 28.728445 48.939453 28.134766 C 48.811457 27.841633 48.474092 26.954109 48.189453 26.162109 C 47.221478 23.468747 45.13516 20.799081 42.171875 18.460938 C 40.730314 17.32349 36.369362 15.659538 35.261719 15.652344 z M 29.722656 15.654297 C 28.759878 15.657897 24.557963 17.02797 22.384766 18.855469 C 20.050216 20.818653 18.653518 22.552967 17.535156 24.882812 C 16.408774 27.229367 15.800052 29.131584 15.904297 29.945312 L 18.792969 29.96875 C 18.939041 29.628937 19.095909 29.081695 19.1875 28.5625 C 19.511246 26.72731 21.325123 23.638711 22.919922 22.207031 C 25.088923 20.454469 27.460865 18.924766 30.238281 18.486328 C 30.245281 18.482628 30.252916 18.478329 30.259766 18.474609 L 30.28125 15.748047 C 30.156773 15.706457 30.001701 15.680493 29.806641 15.658203 C 29.782501 15.655403 29.753706 15.654197 29.722656 15.654297 z M 29.970703 21.681641 C 26.852834 21.681641 21.925781 26.574314 21.925781 29.669922 C 21.925781 29.793915 21.927894 29.901465 21.933594 29.996094 L 24.623047 30.017578 C 24.740897 29.851308 24.804686 29.655672 24.804688 29.4375 C 25.387839 27.711283 26.802871 26.556371 28.105469 25.375 C 28.354359 25.12611 29.046817 24.797969 29.642578 24.644531 C 29.878922 24.583661 30.063918 24.530906 30.210938 24.466797 L 30.232422 21.685547 C 30.154372 21.683147 30.067658 21.681641 29.970703 21.681641 z M 35.089844 21.681641 C 34.942993 21.681641 34.818188 21.683906 34.710938 21.691406 L 34.720703 24.296875 C 34.967886 24.453848 35.300783 24.572436 35.742188 24.677734 C 36.868175 24.946343 39.775609 27.843635 40.042969 28.962891 C 40.116189 29.269415 40.237732 29.612345 40.361328 29.878906 L 43.035156 29.888672 C 43.037156 29.803322 43.036256 29.709163 43.035156 29.603516 C 43.001876 26.415746 38.25407 21.681641 35.089844 21.681641 z M 51.708984 34.478516 L 51.4375 35.917969 C 51.032687 37.843922 50.409733 39.585415 49.408203 41.296875 C 47.884465 44.463502 44.410272 47.90599 41.285156 49.345703 C 39.333445 50.24484 36.588759 51.123047 35.730469 51.123047 C 35.287498 51.123047 34.95588 51.162724 34.710938 51.267578 L 34.720703 54.03125 L 36.085938 53.894531 C 44.334668 53.066802 51.145844 46.176196 53.527344 39.123047 C 54.439715 36.420928 54.759353 35.112854 54.431641 34.478516 L 51.708984 34.478516 z " />
  </g>
</svg>
