<?xml version="1.0" encoding="UTF-8" standalone="no"?>
<!-- Created with Inkscape (http://www.inkscape.org/) -->

<svg
   version="1.1"
   id="svg1"
   width="64"
   height="64"
   viewBox="0 0 64 64"
   sodipodi:docname="shahed.svg"
   inkscape:version="1.3.2 (091e20e, 2023-11-25, custom)"
   xmlns:inkscape="http://www.inkscape.org/namespaces/inkscape"
   xmlns:sodipodi="http://sodipodi.sourceforge.net/DTD/sodipodi-0.dtd"
   xmlns="http://www.w3.org/2000/svg"
   xmlns:svg="http://www.w3.org/2000/svg">
  <defs
     id="defs1">
    <inkscape:path-effect
       effect="fillet_chamfer"
       id="path-effect11"
       is_visible="true"
       lpeversion="1"
       nodesatellites_param="F,0,0,1,0,0,0,1 @ F,0,0,1,0,0,0,1 @ F,0,0,1,0,0,0,1 @ F,0,0,1,0,0,0,1 @ F,0,0,1,0,0,0,1 @ F,0,0,1,0,0,0,1 @ F,0,0,1,0,0,0,1 @ F,0,0,1,0,0,0,1 @ F,0,0,1,0,0,0,1 @ F,0,0,1,0,0,0,1 @ F,0,0,1,0,0,0,1 @ F,0,0,1,0,0,0,1 @ F,0,0,1,0,0,0,1 @ F,0,0,1,0,0,0,1 @ F,0,0,1,0,0,0,1 @ F,0,0,1,0,0,0,1 @ F,0,0,1,0,0,0,1 @ F,0,0,1,0,0,0,1 @ F,0,0,1,0,0,0,1 @ F,0,0,1,0,0,0,1 @ F,0,0,1,0,0,0,1 @ F,0,0,1,0,0,0,1 @ F,0,0,1,0,0,0,1 @ F,0,0,1,0,0,0,1 @ F,0,0,1,0,0,0,1 @ F,0,0,1,0,0,0,1 @ F,0,0,1,0,0,0,1 @ F,0,0,1,0,0,0,1"
       radius="0"
       unit="px"
       method="auto"
       mode="F"
       chamfer_steps="1"
       flexible="false"
       use_knot_distance="true"
       apply_no_radius="true"
       apply_with_radius="true"
       only_selected="false"
       hide_knots="false" />
  </defs>
  <sodipodi:namedview
     id="namedview1"
     pagecolor="#ffffff"
     bordercolor="#000000"
     borderopacity="0.25"
     inkscape:showpageshadow="2"
     inkscape:pageopacity="0.0"
     inkscape:pagecheckerboard="0"
     inkscape:deskcolor="#d1d1d1"
     showguides="true"
     inkscape:zoom="8"
     inkscape:cx="19.0625"
     inkscape:cy="21.25"
     inkscape:window-width="1440"
     inkscape:window-height="740"
     inkscape:window-x="-6"
     inkscape:window-y="-6"
     inkscape:window-maximized="1"
     inkscape:current-layer="g1">
    <sodipodi:guide
       position="48.644787,53.393398"
       orientation="0,-1"
       id="guide1"
       inkscape:locked="false" />
    <sodipodi:guide
       position="52.575469,54.28768"
       orientation="1,0"
       id="guide2"
       inkscape:locked="false" />
    <sodipodi:guide
       position="56.088236,52.617647"
       orientation="0,-1"
       id="guide4"
       inkscape:locked="false" />
    <sodipodi:guide
       position="27.411765,28.470588"
       orientation="1,0"
       id="guide5"
       inkscape:locked="false" />
    <sodipodi:guide
       position="26.287735,43.327525"
       orientation="1,0"
       id="guide6"
       inkscape:locked="false" />
    <sodipodi:guide
       position="29.07353,20.220588"
       orientation="1,0"
       id="guide7"
       inkscape:locked="false" />
    <sodipodi:guide
       position="54.800776,30.162861"
       orientation="1,0"
       id="guide9"
       inkscape:locked="false" />
    <sodipodi:guide
       position="48.915152,48.52684"
       orientation="1,0"
       id="guide10"
       inkscape:locked="false" />
    <sodipodi:guide
       position="20.422908,22.447077"
       orientation="0,-1"
       id="guide12"
       inkscape:locked="false" />
    <sodipodi:guide
       position="23.209741,21.781565"
       orientation="0,-1"
       id="guide13"
       inkscape:locked="false" />
    <sodipodi:guide
       position="23.500902,40.291125"
       orientation="0,-1"
       id="guide14"
       inkscape:locked="false" />
    <sodipodi:guide
       position="23.708875,40.998232"
       orientation="0,-1"
       id="guide15"
       inkscape:locked="false" />
    <sodipodi:guide
       position="51.764707,31.323529"
       orientation="0,-1"
       id="guide16"
       inkscape:locked="false" />
    <sodipodi:guide
       position="58.676471,31.852941"
       orientation="0,-1"
       id="guide17"
       inkscape:locked="false" />
    <sodipodi:guide
       position="59.382354,30.882353"
       orientation="0,-1"
       id="guide18"
       inkscape:locked="false" />
    <sodipodi:guide
       position="56.970589,9.1176464"
       orientation="0,-1"
       id="guide19"
       inkscape:locked="false" />
    <sodipodi:guide
       position="56.069409,10.010317"
       orientation="0,-1"
       id="guide20"
       inkscape:locked="false" />
    <sodipodi:guide
       position="21.648437,34.343751"
       orientation="0,-1"
       id="guide3"
       inkscape:locked="false" />
    <sodipodi:guide
       position="21.609374,28.320314"
       orientation="0,-1"
       id="guide8"
       inkscape:locked="false" />
    <sodipodi:guide
       position="37.624998,33.625001"
       orientation="0,-1"
       id="guide11"
       inkscape:locked="false" />
    <sodipodi:guide
       position="38.874998,29.062502"
       orientation="0,-1"
       id="guide21"
       inkscape:locked="false" />
    <sodipodi:guide
       position="35.499998,27.500002"
       orientation="0,-1"
       id="guide22"
       inkscape:locked="false" />
    <sodipodi:guide
       position="37.249998,35.125001"
       orientation="0,-1"
       id="guide23"
       inkscape:locked="false" />
    <sodipodi:guide
       position="20.937499,28.250002"
       orientation="1,0"
       id="guide24"
       inkscape:locked="false" />
    <sodipodi:guide
       position="37.624998,27.000002"
       orientation="1,0"
       id="guide25"
       inkscape:locked="false" />
  </sodipodi:namedview>
  <g
     inkscape:groupmode="layer"
     inkscape:label="Image"
     id="g1">
    <path
       id="path27"
       style="fill:#000000;fill-opacity:0.85000002"
       d="m 37.802734,34.046875 c -4.67227,-0.04791 -17.410155,1.617187 -17.410155,1.617187 l 0.277343,0.01757 2.949219,2.230468 c 1.424985,1.028828 3.051935,2.388344 4.49414,3.628907 -1.81704,0.02544 -1.814878,0.677152 0.966797,0.685546 0.650428,0.45994 1.340351,1.014655 2.742188,2.080079 5.383354,4.091463 14.157167,10.641455 17.066406,10.572265 1.966156,-0.0065 3.932292,-0.01151 5.898437,-0.0039 l 0.01367,-0.890625 h -2.226562 c -0.01847,-1.194119 0.03727,-1.593102 -0.0293,-9.140625 l 0.01953,-8.425781 -1.613281,-0.128907 c -1.520881,-0.09759 -1.747736,-0.46851 -1.53711,-0.74414 h -0.01562 c -0.02919,-0.0061 -6.933302,-1.450238 -11.595704,-1.498047 z"
       sodipodi:nodetypes="scccccscccccccccss" />
    <path
       style="fill:#000000"
       d="m 54.529297,29.369141 v 2.789062 l -0.953125,-0.01563 c -0.0021,-0.09823 -4.58e-4,-0.226754 -0.002,-0.304687 -0.0051,-0.284987 -1.011537,-0.657142 -1.691407,-0.917969 -1.177682,-0.45181 -2.145041,-0.842624 -2.533203,-1.027344 -2.236471,0.433737 -7.514541,1.366056 -11.738281,1.363281 -5.271263,-0.0035 -15.756602,-1.44229 -16.904297,-1.601562 -0.10772,0.0059 -2.526004,0.139915 -3.789062,0.208984 -5.609107,0.119676 -7.1298801,1.242538 -7.1621096,2.751953 -0.032231,1.509421 1.5140006,2.687171 7.1386716,2.876954 l 3.496094,0.177734 c 1.061863,-0.13666 12.814583,-1.635622 17.279297,-1.589844 3.905839,0.04005 9.817144,1.109045 11.740234,1.47461 0.439515,-0.306857 1.432825,-0.685592 2.585938,-1.119141 0.634173,-0.238439 1.57966,-0.536145 1.59375,-0.945313 0.0033,-0.09591 -0.0041,-0.236581 -0.0039,-0.357422 h 0.943359 v 3.029297 h 0.587891 l 0.0293,-6.792968 z"
       id="path26"
       sodipodi:nodetypes="ccccsccccsccscsscccccc" />
    <path
       id="path1"
       style="fill:#000000;fill-opacity:0.85358256"
       d="m 54.798828,10.599609 -5.730469,0.0078 c -0.489532,-3e-4 -0.89944,-0.0066 -1.261718,-0.002 -2.535973,0.03286 -2.73288,0.575831 -11.501953,7.050781 -3.389029,2.502402 -6.037718,4.558038 -7.181641,5.373047 -2.835282,-0.0081 -2.839403,0.674538 -0.861328,0.705078 -0.61522,0.526994 -1.492456,1.196387 -2.96875,2.353516 l -4.47461,3.52539 -0.103516,0.04688 c 0,0 11.376094,1.605677 16.892577,1.609375 5.425351,0.0036 11.253402,-1.280038 11.736328,-1.371094 -0.282515,-0.107083 -0.261719,-0.220702 -0.261719,-0.220702 -0.02505,-0.208084 0.477608,-0.417653 1.751953,-0.621093 0.756169,-0.09499 0.982746,-0.113901 1.72461,-0.21875 0.05848,-1.641784 0.07874,-2.256296 0.07031,-4.808594 -0.01783,-5.401056 -0.03223,-8.453149 -0.04297,-10.210938 -0.01074,-1.757785 -0.01875,-2.220839 -0.01953,-2.443359 h 2.232422 z"
       sodipodi:nodetypes="cccsccccccccccssccc" />
  </g>
</svg>
