<?xml version="1.0" encoding="UTF-8" standalone="no"?>
<!-- Created with Inkscape (http://www.inkscape.org/) -->

<svg
   version="1.1"
   id="svg1"
   width="64"
   height="64"
   viewBox="0 0 64 64"
   sodipodi:docname="shahed238_.svg"
   inkscape:version="1.3.2 (091e20e, 2023-11-25, custom)"
   xmlns:inkscape="http://www.inkscape.org/namespaces/inkscape"
   xmlns:sodipodi="http://sodipodi.sourceforge.net/DTD/sodipodi-0.dtd"
   xmlns="http://www.w3.org/2000/svg"
   xmlns:svg="http://www.w3.org/2000/svg">
  <defs
     id="defs1" />
  <sodipodi:namedview
     id="namedview1"
     pagecolor="#ffffff"
     bordercolor="#000000"
     borderopacity="0.25"
     inkscape:showpageshadow="2"
     inkscape:pageopacity="0.0"
     inkscape:pagecheckerboard="0"
     inkscape:deskcolor="#d1d1d1"
     showgrid="false"
     showguides="true"
     inkscape:lockguides="false"
     inkscape:zoom="33.913726"
     inkscape:cx="54.918766"
     inkscape:cy="35.369159"
     inkscape:window-width="1427"
     inkscape:window-height="775"
     inkscape:window-x="0"
     inkscape:window-y="0"
     inkscape:window-maximized="0"
     inkscape:current-layer="g1">
    <sodipodi:guide
       position="47.058824,9.7647059"
       orientation="0,-1"
       id="guide2"
       inkscape:locked="false" />
    <sodipodi:guide
       position="52.117647,36.823529"
       orientation="1,0"
       id="guide3"
       inkscape:locked="false" />
    <sodipodi:guide
       position="53.764706,52.941176"
       orientation="0,-1"
       id="guide4"
       inkscape:locked="false" />
    <sodipodi:guide
       position="49.117647,11.529412"
       orientation="0,-1"
       id="guide5"
       inkscape:locked="false" />
    <sodipodi:guide
       position="53.074603,45.199279"
       orientation="1,0"
       id="guide6"
       inkscape:locked="false" />
    <sodipodi:guide
       position="45.529412,5.0588235"
       orientation="1,0"
       id="guide7"
       inkscape:locked="false" />
    <sodipodi:guide
       position="43.117647,8.5294117"
       orientation="1,0"
       id="guide8"
       inkscape:locked="false" />
    <sodipodi:guide
       position="1.5294118,54.705882"
       orientation="0,-1"
       id="guide9"
       inkscape:locked="false" />
    <sodipodi:guide
       position="33.816342,26.356963"
       orientation="1,0"
       id="guide10"
       inkscape:locked="false" />
    <sodipodi:guide
       position="9.0671878,31.792593"
       orientation="0,-1"
       id="guide11"
       inkscape:locked="false" />
    <sodipodi:guide
       position="15.820354,40.293082"
       orientation="0,-1"
       id="guide12"
       inkscape:locked="false" />
    <sodipodi:guide
       position="13.034082,23.008755"
       orientation="0,-1"
       id="guide13"
       inkscape:locked="false" />
    <sodipodi:guide
       position="13.034082,21.780907"
       orientation="0,-1"
       id="guide14"
       inkscape:locked="false" />
    <sodipodi:guide
       position="21.345671,41.473705"
       orientation="0,-1"
       id="guide15"
       inkscape:locked="false" />
    <sodipodi:guide
       position="24.037493,37.034561"
       orientation="1,0"
       id="guide16"
       inkscape:locked="false" />
    <sodipodi:guide
       position="27.366797,44.812665"
       orientation="1,0"
       id="guide17"
       inkscape:locked="false" />
    <sodipodi:guide
       position="30.648984,45.912849"
       orientation="1,0"
       id="guide18"
       inkscape:locked="false" />
    <sodipodi:guide
       position="10.672836,37.742935"
       orientation="1,0"
       id="guide19"
       inkscape:locked="false" />
    <sodipodi:guide
       position="11.900684,34.862214"
       orientation="0,-1"
       id="guide20"
       inkscape:locked="false" />
    <sodipodi:guide
       position="17.567676,28.486848"
       orientation="0,-1"
       id="guide21"
       inkscape:locked="false" />
    <sodipodi:guide
       position="15.820354,36.703987"
       orientation="1,0"
       id="guide22"
       inkscape:locked="false" />
    <sodipodi:guide
       position="18.228825,30.89532"
       orientation="1,0"
       id="guide23"
       inkscape:locked="false" />
    <sodipodi:guide
       position="21.493001,45.699396"
       orientation="1,0"
       id="guide24"
       inkscape:locked="false" />
    <sodipodi:guide
       position="50.430839,56.282073"
       orientation="1,0"
       id="guide25"
       inkscape:locked="false" />
    <sodipodi:guide
       position="59.741453,28.462244"
       orientation="1,0"
       id="guide26"
       inkscape:locked="false" />
    <sodipodi:guide
       position="56.889658,28.023507"
       orientation="1,0"
       id="guide27"
       inkscape:locked="false" />
  </sodipodi:namedview>
  <g
     inkscape:groupmode="layer"
     inkscape:label="Image"
     id="g1">
    <path
       id="path1"
       style="fill:#000000"
       d="m 45.4375,9.2949219 c 0,0 -13.186835,9.4417421 -18.042969,13.1484371 -5.926612,0.08911 -5.847429,1.198307 -1.523437,1.191407 -2.50534,2.014774 -5.185068,4.417571 -7.673828,5.523437 -2.49639,0.235695 -5.056156,0.08274 -7.501954,0.777344 -3.5202946,1.070625 -3.3929665,3.316989 0.0069,4.408861 2.373429,0.985216 4.128187,0.724103 7.557541,1.132154 0.962615,0.520467 5.170695,3.568583 7.666015,5.47461 -4.552525,0.04471 -4.566291,1.244454 1.449219,1.183594 0.707657,0.580578 8.654543,5.732893 18.138672,12.058593 4.866128,0.07769 5.662683,-0.01593 7.527344,-0.01953 0.01567,-1.760958 -0.0544,-1.232607 -2.6875,-1.828125 C 50.481119,47.050667 50.44737,41.532959 50.375,36.359375 45.508721,36.246156 40.388771,36.23642 35.521484,36.1875 c -2.125325,0.15583 -5.052111,-0.67465 -4.716796,-3.367188 -0.531027,-2.366416 1.071462,-4.92955 3.732421,-4.419921 5.323847,0.149459 10.861307,0.121488 15.935547,0.224609 -6.8e-4,-5.92102 0.05356,-11.676452 -0.04687,-17.595703 2.610695,-0.43761 2.607907,0.06376 2.623047,-1.7207032 C 50.321714,9.2910168 45.4375,9.2949219 45.4375,9.2949219 Z M 35.792969,29.201172 c -1.135101,-0.02887 -2.263264,-0.0033 -3.355469,0.261719 -1.496823,1.32003 -1.680297,4.522935 0.203125,5.578125 2.93372,0.537731 5.955724,0.271656 8.927734,0.390625 2.854851,0.0337 5.710408,0.05968 8.564453,0.138671 1.115503,-0.623893 2.631064,-1.043889 3.904297,-1.722656 -0.609684,-0.267092 -1.003648,-0.869534 -1.003906,-1.535156 3.15e-4,-0.590438 0.311156,-1.137192 0.818359,-1.439453 -1.031661,-0.509164 -2.479949,-0.766261 -3.238281,-1.369141 -3.788821,-0.398449 -7.615521,-0.157197 -11.419922,-0.242187 -1.122043,0.05069 -2.26529,-0.03168 -3.40039,-0.06055 z"
       sodipodi:nodetypes="ccccccccccccccccccccscccccccccs" />
    <path
       id="path25"
       style="fill:#000000;fill-opacity:0.58333331"
       d="m 54.764349,31.199805 c -0.665762,7.76e-4 -1.205052,0.524333 -1.205078,1.169921 2.5e-5,0.645588 0.539315,1.169146 1.205078,1.169922 1.03355,-0.225257 1.9812,-0.846826 2.931641,-1.318359 0,0 -2.485169,-1.022376 -2.931641,-1.021484 z"
       sodipodi:nodetypes="ccccc" />
  </g>
</svg>
