<?xml version="1.0" encoding="UTF-8" standalone="no"?>
<!-- Created with Inkscape (http://www.inkscape.org/) -->

<svg
   version="1.1"
   id="svg1"
   width="64"
   height="64"
   viewBox="0 0 64 64"
   sodipodi:docname="su57.svg"
   inkscape:version="1.3.2 (091e20e, 2023-11-25, custom)"
   xmlns:inkscape="http://www.inkscape.org/namespaces/inkscape"
   xmlns:sodipodi="http://sodipodi.sourceforge.net/DTD/sodipodi-0.dtd"
   xmlns="http://www.w3.org/2000/svg"
   xmlns:svg="http://www.w3.org/2000/svg">
  <defs
     id="defs1" />
  <sodipodi:namedview
     id="namedview1"
     pagecolor="#ffffff"
     bordercolor="#000000"
     borderopacity="0.25"
     inkscape:showpageshadow="2"
     inkscape:pageopacity="0.0"
     inkscape:pagecheckerboard="0"
     inkscape:deskcolor="#d1d1d1"
     showguides="true"
     inkscape:zoom="8.5"
     inkscape:cx="32"
     inkscape:cy="32"
     inkscape:window-width="1440"
     inkscape:window-height="740"
     inkscape:window-x="-6"
     inkscape:window-y="-6"
     inkscape:window-maximized="1"
     inkscape:current-layer="g1">
    <sodipodi:guide
       position="26.823529,31.176471"
       orientation="0,-1"
       id="guide1"
       inkscape:locked="false" />
    <sodipodi:guide
       position="2.8235294,39.411765"
       orientation="1,0"
       id="guide2"
       inkscape:locked="false" />
  </sodipodi:namedview>
  <g
     inkscape:groupmode="layer"
     inkscape:label="Image"
     id="g1">
    <path
       style="fill:#000000"
       d="m 45.062857,53.036418 c -0.232571,-0.22197 -1.286857,-1.12197 -2.342857,-2 -1.056,-0.87803 -2.64,-2.265454 -3.52,-3.083164 -0.88,-0.81771 -2.32,-2.028928 -3.2,-2.691595 -0.88,-0.662667 -2.151338,-1.67315 -2.825195,-2.245517 -0.7414,-0.629737 -2.131347,-1.314304 -3.52,-1.733644 C 28.392662,40.90136 26.856,40.436488 26.24,40.249449 24.969045,39.863543 23.152158,38.660036 21.288573,36.969621 19.768042,35.590382 19.979065,35.640176 13.76,35.193144 9.2498387,34.86895 6.1465217,34.276974 3.44,33.224543 2.2901074,32.777407 2.3293903,32.450951 3.6,31.89488 6.1940422,30.759621 8.4737061,30.316098 13.680305,29.933694 l 5.520306,-0.405445 2.319694,-1.767853 c 2.868711,-2.18626 4.394485,-3.117644 5.109808,-3.1192 0.732584,-0.0016 5.455106,-1.551212 5.676124,-1.862528 0.09557,-0.134615 1.685763,-1.483977 3.533763,-2.998582 1.848,-1.514605 4.790824,-3.992735 6.539609,-5.506957 2.883232,-2.496504 3.300822,-2.75218 4.48,-2.742952 1.388203,0.01086 2.111625,0.400907 2.651927,1.429823 0.449058,0.855154 1.368464,5.393003 1.368464,6.754229 0,0.597174 0.108,1.084491 0.24,1.082927 0.132,-0.0016 1.079659,-0.721563 2.105909,-1.6 1.943733,-1.66377 2.518879,-1.845519 3.879034,-1.225791 0.615232,0.280318 0.816283,0.613746 0.820056,1.36 0.0027,0.543749 0.213619,1.852635 0.468601,2.908635 0.72787,3.014459 0.775252,2.922099 -1.937941,3.777526 l -2.424341,0.764356 1.704341,0.289059 c 1.66855,0.282989 1.706386,0.313577 1.801723,1.456598 0.09302,1.115204 0.03564,1.189379 -1.28,1.654737 -1.305096,0.461629 -1.327,0.489265 -0.417382,0.526583 1.366654,0.05607 3.821048,0.74426 4.416329,1.238299 1.030008,0.85483 -0.08901,1.5853 -3.776329,2.465102 l -0.96,0.229059 1.04,0.440258 c 0.881412,0.373124 1.04,0.605214 1.04,1.522019 0,1.12989 -0.487151,1.461882 -2.16,1.472035 -0.396,0.0024 -0.72,0.148369 -0.72,0.324369 0,0.176 0.27154,0.32 0.603422,0.32 0.331882,0 1.015882,0.215113 1.52,0.478029 0.504118,0.262915 1.168578,0.478915 1.476578,0.48 0.675218,0.0024 0.67319,0.243722 -0.03473,4.133723 -0.435944,2.395508 -0.676708,3.062037 -1.176682,3.257508 -1.309605,0.512009 -2.143318,0.265031 -3.879509,-1.14926 -0.972263,-0.792 -1.898551,-1.44 -2.058417,-1.44 -0.159866,0 -0.294363,0.54 -0.298882,1.2 -0.01436,2.097579 -1.163904,6.491924 -1.870459,7.15018 -0.764242,0.712 -3.271014,0.843267 -3.938468,0.206238 z"
       id="path2" />
  </g>
</svg>
