<?xml version="1.0" encoding="UTF-8" standalone="no"?>
<!-- Created with Inkscape (http://www.inkscape.org/) -->

<svg
   version="1.1"
   id="svg1"
   width="64"
   height="64"
   viewBox="0 0 64 64"
   sodipodi:docname="supercam.svg"
   inkscape:version="1.3.2 (091e20e, 2023-11-25, custom)"
   xmlns:inkscape="http://www.inkscape.org/namespaces/inkscape"
   xmlns:sodipodi="http://sodipodi.sourceforge.net/DTD/sodipodi-0.dtd"
   xmlns="http://www.w3.org/2000/svg"
   xmlns:svg="http://www.w3.org/2000/svg">
  <defs
     id="defs1" />
  <sodipodi:namedview
     id="namedview1"
     pagecolor="#ffffff"
     bordercolor="#000000"
     borderopacity="0.25"
     inkscape:showpageshadow="2"
     inkscape:pageopacity="0.0"
     inkscape:pagecheckerboard="0"
     inkscape:deskcolor="#d1d1d1"
     inkscape:zoom="8.5"
     inkscape:cx="32"
     inkscape:cy="32"
     inkscape:window-width="1440"
     inkscape:window-height="740"
     inkscape:window-x="-6"
     inkscape:window-y="-6"
     inkscape:window-maximized="1"
     inkscape:current-layer="g1" />
  <g
     inkscape:groupmode="layer"
     inkscape:label="Image"
     id="g1">
    <path
       style="fill:#000000;stroke-width:0.932613"
       d="m 35.577013,57.869075 c -0.900115,-0.937751 -3.713189,-6.119943 -3.713189,-6.840368 0,-0.147859 -1.063695,-3.394069 -2.363766,-7.213802 -1.300072,-3.819734 -2.535281,-7.870551 -2.74491,-9.001816 -0.51137,-2.759612 -0.525235,-2.796402 -1.05389,-2.796402 -0.320887,0 -0.46106,0.296791 -0.46106,0.976212 0,1.016015 -0.442746,1.686184 -1.113973,1.686184 -0.263161,0 -0.391396,-0.436147 -0.391396,-1.331198 0,-1.084679 -0.100358,-1.331198 -0.541933,-1.331198 -1.300383,0 -1.667418,-1.311418 -0.511826,-1.828756 0.651934,-0.29186 0.752685,-0.528594 0.752685,-1.768589 0,-1.197917 0.09132,-1.431625 0.559371,-1.431625 0.415183,0 0.62869,0.324075 0.828293,1.257242 0.209457,0.979235 0.418641,1.278146 0.945998,1.351773 0.372393,0.05199 0.681509,-0.01457 0.686928,-0.147911 0.119043,-2.929842 2.496232,-10.983635 5.717012,-19.368943 1.594833,-4.1521536 3.36524,-6.90873 4.638835,-7.2228056 1.014447,-0.2501688 1.978332,0.3387777 1.978332,1.2087886 0,0.7731933 -2.087581,9.699147 -2.822705,12.069153 -0.616325,1.987007 -0.318068,4.278626 0.950475,7.302841 2.285534,5.448732 2.471625,8.308929 0.84018,12.913574 -0.567627,1.602091 -1.312785,3.556247 -1.655906,4.342571 -0.343122,0.786323 -0.623857,2.045561 -0.623857,2.798306 0,0.752746 0.754236,4.349814 1.676081,7.993484 0.921844,3.643671 1.603513,6.810667 1.514818,7.037769 -0.09097,0.23292 -0.576416,0.412912 -1.113651,0.412912 -0.703871,0 -1.219739,-0.278529 -1.976946,-1.067396 z"
       id="path1" />
  </g>
</svg>
