<?xml version="1.0" encoding="UTF-8" standalone="no"?>
<!-- Created with Inkscape (http://www.inkscape.org/) -->

<svg
   version="1.1"
   id="svg1"
   width="64"
   height="64"
   viewBox="0 0 64 64"
   sodipodi:docname="mig29.svg"
   inkscape:version="1.3.2 (091e20e, 2023-11-25, custom)"
   xmlns:inkscape="http://www.inkscape.org/namespaces/inkscape"
   xmlns:sodipodi="http://sodipodi.sourceforge.net/DTD/sodipodi-0.dtd"
   xmlns="http://www.w3.org/2000/svg"
   xmlns:svg="http://www.w3.org/2000/svg">
  <defs
     id="defs1" />
  <sodipodi:namedview
     id="namedview1"
     pagecolor="#ffffff"
     bordercolor="#000000"
     borderopacity="0.25"
     inkscape:showpageshadow="2"
     inkscape:pageopacity="0.0"
     inkscape:pagecheckerboard="0"
     inkscape:deskcolor="#d1d1d1"
     inkscape:zoom="6.0104076"
     inkscape:cx="17.136941"
     inkscape:cy="42.592785"
     inkscape:window-width="1440"
     inkscape:window-height="740"
     inkscape:window-x="-6"
     inkscape:window-y="-6"
     inkscape:window-maximized="1"
     inkscape:current-layer="g1" />
  <g
     inkscape:groupmode="layer"
     inkscape:label="Image"
     id="g1">
    <path
       style="fill:#000000"
       d="M 44.338824,52.437665 C 43.641553,52.064109 43.5109,51.927134 36.037578,43.734778 L 30.936331,38.142724 27.265208,37.431635 C 25.24609,37.040536 21.56565,36.078787 19.086454,35.294414 15.148207,34.048425 14.012931,33.828754 10.098824,33.555352 5.8561599,33.259 2.2588235,32.535656 2.2588235,31.978902 c 0,-0.539686 3.5369776,-1.198659 7.3600001,-1.371239 3.4976224,-0.15789 4.5224734,-0.344999 8.1600004,-1.48979 5.24826,-1.651715 11.344817,-2.457996 12.629407,-2.99552 1.054335,-0.441177 0.03914,0.29723 7.479291,-7.882353 3.121747,-3.432 6.066368,-6.413505 6.543603,-6.625567 0.477234,-0.212061 1.637212,-0.392061 2.577727,-0.4 l 1.710028,-0.01443 -0.182988,1.52 c -0.100643,0.836 -0.276206,2.384 -0.39014,3.44 -0.113933,1.056 -0.316873,2.136 -0.450976,2.4 -0.134104,0.264 -0.328245,1.056 -0.431425,1.76 -0.103181,0.704 -0.334575,2.144 -0.51421,3.2 -0.179636,1.056 -0.327444,1.963151 -0.328464,2.01589 -10e-4,0.05274 0.894978,-0.0056 1.991104,-0.129587 1.964274,-0.222233 2.049837,-0.274273 5.945167,-3.61589 2.173715,-1.864727 4.154948,-3.504485 4.40274,-3.643906 0.515621,-0.290116 3.112393,0.32161 2.959834,0.697253 -0.05538,0.13637 -0.731482,1.624519 -1.502441,3.306997 -1.299386,2.835675 -1.478726,3.071544 -2.455984,3.230132 -0.579833,0.09409 -1.339735,0.456573 -1.688672,0.80551 -0.619267,0.619267 -0.619841,0.638246 -0.02402,0.794057 0.499772,0.130693 0.610419,0.455082 0.610419,1.789586 0,1.597731 -0.01898,1.629958 -0.96,1.629958 -0.528,0 -0.942947,0.108 -0.922105,0.24 0.02084,0.132 0.0088,0.312 -0.02667,0.4 -0.211179,0.523356 -0.08216,1.547577 -0.103331,1.771577 -0.03539,0.374351 0.0066,0.356382 0.0066,0.620382 0,0.298667 0.707768,0.168041 1.205546,0.168041 0.748627,0 0.8,0.104669 0.8,1.629958 0,1.373955 -0.103006,1.656895 -0.655835,1.801463 l -0.655834,0.171505 0.665782,0.62027 c 0.366179,0.341148 1.146521,0.698283 1.734091,0.793632 0.994785,0.161432 1.164782,0.383898 2.470053,3.232415 0.770959,1.682478 1.446666,3.169453 1.501571,3.304388 0.08552,0.210163 -1.887815,0.919336 -2.572727,0.924584 -0.128095,9.82e-4 -2.152733,-1.630841 -4.499196,-3.626274 -4.246751,-3.611437 -4.275485,-3.629019 -6.272021,-3.837698 l -2.005724,-0.20964 0.163408,0.877699 c 0.08987,0.482734 0.333676,1.885698 0.54178,3.117698 0.208104,1.232 0.500574,2.6 0.649934,3.04 0.207902,0.612458 0.934718,6.201211 0.934718,7.187388 0,0.318478 -3.672453,0.157194 -4.32,-0.189723 z"
       id="path1"
       sodipodi:nodetypes="sscsssssssssscsssssccsssssssssscssssscssssssscssssss" />
  </g>
</svg>
