<?xml version="1.0" encoding="UTF-8" standalone="no"?>
<!-- Created with Inkscape (http://www.inkscape.org/) -->

<svg
   version="1.1"
   id="svg1"
   width="266.66666"
   height="266.66666"
   viewBox="0 0 266.66666 266.66666"
   sodipodi:docname="tu951.svg"
   inkscape:version="1.4.2 (ebf0e940, 2025-05-08)"
   xmlns:inkscape="http://www.inkscape.org/namespaces/inkscape"
   xmlns:sodipodi="http://sodipodi.sourceforge.net/DTD/sodipodi-0.dtd"
   xmlns="http://www.w3.org/2000/svg"
   xmlns:svg="http://www.w3.org/2000/svg">
  <defs
     id="defs1" />
  <sodipodi:namedview
     id="namedview1"
     pagecolor="#ffffff"
     bordercolor="#000000"
     borderopacity="0.25"
     inkscape:showpageshadow="2"
     inkscape:pageopacity="0.0"
     inkscape:pagecheckerboard="0"
     inkscape:deskcolor="#d1d1d1"
     showguides="true"
     inkscape:zoom="1.1814585"
     inkscape:cx="269.58204"
     inkscape:cy="278.89257"
     inkscape:window-width="1440"
     inkscape:window-height="872"
     inkscape:window-x="0"
     inkscape:window-y="28"
     inkscape:window-maximized="0"
     inkscape:current-layer="g1">
    <sodipodi:guide
       position="71.568626,132.84313"
       orientation="0,-1"
       id="guide1"
       inkscape:locked="false" />
    <sodipodi:guide
       position="91.666663,174.0196"
       orientation="1,0"
       id="guide2"
       inkscape:locked="false" />
    <sodipodi:guide
       position="71.568625,198.03921"
       orientation="0,-1"
       id="guide3"
       inkscape:locked="false" />
    <sodipodi:guide
       position="91.666663,70.09804"
       orientation="0,-1"
       id="guide4"
       inkscape:locked="false" />
    <sodipodi:guide
       position="168.10858,160.345"
       orientation="0,-1"
       id="guide5"
       inkscape:locked="false" />
    <sodipodi:guide
       position="164.11909,99.220835"
       orientation="0,-1"
       id="guide6"
       inkscape:locked="false" />
    <sodipodi:guide
       position="83.751512,212.52157"
       orientation="0,-1"
       id="guide7"
       inkscape:locked="false" />
    <sodipodi:guide
       position="71.482183,182.11497"
       orientation="0,-1"
       id="guide8"
       inkscape:locked="false" />
    <sodipodi:guide
       position="70.948733,203.45294"
       orientation="1,0"
       id="guide9"
       inkscape:locked="false" />
    <sodipodi:guide
       position="66.681141,203.45294"
       orientation="1,0"
       id="guide10"
       inkscape:locked="false" />
    <sodipodi:guide
       position="84.149912,197.55909"
       orientation="1,0"
       id="guide11"
       inkscape:locked="false" />
    <sodipodi:guide
       position="94.287143,189.60191"
       orientation="1,0"
       id="guide12"
       inkscape:locked="false" />
    <sodipodi:guide
       position="141.3676,143.59791"
       orientation="1,0"
       id="guide13"
       inkscape:locked="false" />
    <sodipodi:guide
       position="166.48367,140.7275"
       orientation="0,-1"
       id="guide14"
       inkscape:locked="false" />
    <sodipodi:guide
       position="168.27768,124.94026"
       orientation="0,-1"
       id="guide15"
       inkscape:locked="false" />
    <sodipodi:guide
       position="114.17464,150.97643"
       orientation="0,-1"
       id="guide16"
       inkscape:locked="false" />
    <sodipodi:guide
       position="112.65905,114.43381"
       orientation="0,-1"
       id="guide17"
       inkscape:locked="false" />
    <sodipodi:guide
       position="163.45898,167.24161"
       orientation="0,-1"
       id="guide18"
       inkscape:locked="false" />
  </sodipodi:namedview>
  <g
     inkscape:groupmode="layer"
     inkscape:label="Image"
     id="g1">
    <path
       id="path1"
       style="fill:#000000;stroke-width:1.04507"
       d="m 136.00318,4.6745812 c -0.43276,-0.021252 -0.86793,-0.018932 -1.30064,0.010171 -1.15386,0.077609 -2.29058,0.3375675 -3.32022,0.8034628 -2.75634,1.2471845 -3.87381,4.129973 -7.46794,19.268879 -2.32462,9.791554 -5.03528,21.708437 -6.02392,26.481741 -1.75599,8.478248 -0.6425,2.209141 -1.95199,8.793345 -3.48581,0.205744 -11.9106,0.845665 -19.116372,2.027982 0.664108,-7.456214 0.703266,-12.085473 0.268321,-12.808628 -0.788885,-1.311638 -2.43971,-1.130291 -3.586497,-0.111874 -0.625751,0.555704 -0.352642,8.065576 0.272419,13.526658 -1.312288,0.437692 -2.291998,1.250574 -2.291998,2.11138 0,0.843717 0.955663,1.576095 2.222358,2.048323 -0.637569,5.891546 -0.938971,13.517128 -0.342059,14.118577 1.145834,1.15454 2.412294,1.177788 3.752404,0.252227 0.76253,-0.526648 0.213446,-6.399295 -0.329769,-13.563272 6.873543,1.62607 16.252673,3.527914 16.680993,3.942054 -1.48305,9.002043 -3.53324,15.672477 -5.60607,24.567667 -10.067224,1.541132 -13.011591,2.83954 -18.141406,4.527866 0.581957,-6.883255 0.599979,-11.139174 0.184344,-11.830228 -0.788886,-1.311637 -2.43971,-1.132324 -3.586497,-0.113908 -0.603807,0.536216 -0.371773,7.547376 0.206875,12.944916 -0.229433,0.0678 -0.464214,0.13623 -0.704601,0.20544 -3.90597,1.12452 -3.623353,3.16646 0.284708,4.82892 0.122032,0.0519 0.243761,0.10339 0.366637,0.15458 -0.604791,5.82317 -0.876881,13.08474 -0.294948,13.67109 1.145833,1.15454 2.412293,1.17982 3.752404,0.25426 0.73158,-0.50528 0.255333,-5.93253 -0.264224,-12.69879 7.357075,2.61556 14.970208,4.0393 15.337338,4.37124 10e-4,9.4e-4 0.005,0.005 0.006,0.006 0.23325,0.31497 -1.43438,5.487 -2.2756,9.75955 -14.031775,0.47075 -21.71433,0.11501 -46.192274,0.18102 -28.304712,0 -29.669704,0.12722 -38.380221,3.59016 -15.0835626,5.99657 -15.3239154,9.36823 -1.007741,14.16943 7.215451,2.41984 10.921855,2.12316 38.363834,1.98933 15.39893,0.1476 32.288001,-0.14448 46.857952,-0.12 0.48597,2.41317 1.55149,8.71296 1.35389,8.86656 -0.32948,0.2561 -8.4022,3.00407 -13.86259,4.71705 0.536408,-6.5566 0.54362,-10.60469 0.139281,-11.27697 -0.788886,-1.31163 -2.439709,-1.13231 -3.586496,-0.1139 -0.583114,0.51784 -0.385845,7.07535 0.149522,12.38554 -0.249145,0.0701 -0.475297,0.13149 -0.673875,0.18307 -1.5381,0.39943 -2.797918,1.72216 -2.797918,2.93924 0,1.28717 1.17912,2.05452 2.797918,2.21308 0.24139,0.0236 0.479664,0.0485 0.714842,0.0753 -0.629553,5.87624 -0.925074,13.41301 -0.331819,14.01078 1.145835,1.15452 2.412294,1.17778 3.752405,0.25221 0.771027,-0.5325 0.200763,-6.53089 -0.348204,-13.80329 6.267622,1.16057 10.598614,3.32904 17.641624,4.31226 l 2.75286,11.36443 c 3.07644,12.18386 0.86052,3.05243 3.20757,13.29071 -8.70654,1.30656 -13.14009,2.09767 -17.021006,2.88432 0.657319,-7.4096 0.693522,-12.00871 0.260129,-12.7293 -0.788886,-1.31163 -2.439711,-1.13029 -3.586497,-0.11187 -0.630934,0.5603 -0.347275,8.18944 0.288803,13.66091 -2.697225,1.17379 -2.674153,3.14414 -0.124943,4.39362 -0.610519,5.83622 -0.887696,13.16141 -0.303142,13.75041 1.145834,1.15453 2.412294,1.17779 3.752405,0.25222 0.742817,-0.51302 0.239817,-6.09887 -0.288803,-13.01 4.131354,1.02108 8.083554,1.59397 19.247464,2.18258 1.6576,7.53149 8.20315,44.62636 15.35782,53.65914 4.0537,5.11779 11.53494,4.45647 13.68031,-1.20825 0.61133,-1.61423 -0.0422,-21.96665 -1.45017,-45.22786 -1.40794,-23.26124 -2.44102,-40.20157 -2.26742,-42.41065 7.02155,-1.76803 18.04504,-2.66581 17.8608,-9.23678 -0.14343,-5.11511 -11.08529,-6.30302 -18.09431,-7.27184 -0.1072,-3.50854 0.1823,-6.9081 0.1823,-10.70539 13.22246,0.0585 31.19326,0.19357 46.3336,0.18306 l 33.71224,0.0489 10.31502,15.32886 c 5.67333,8.43118 11.86484,17.1585 13.75813,19.39296 3.72038,4.39082 8.38291,5.33573 9.6862,1.96288 0.68695,-1.77772 -3.81216,-29.9959 -5.89078,-36.94505 -0.50874,-1.7008 0.61046,-2.46086 4.60653,-3.12436 10.88125,-1.80674 11.3324,-5.4025 1.0016,-7.98581 -3.41509,-0.85397 -6.21032,-2.08846 -6.21032,-2.74196 0,-0.65349 1.97698,-8.33653 4.39146,-17.0741 2.4145,-8.73757 4.00712,-16.876606 3.53938,-18.087069 -0.51757,-1.33944 -2.51051,-2.200881 -5.09195,-2.200881 -4.51622,0 -7.60446,3.490937 -22.41406,25.34266 l -6.29225,9.28356 -40.01677,0.0448 -41.28056,-0.0935 c 0,0 9e-5,-7.51995 0,-10.30466 7.15734,-2.2729 17.21096,-4.09961 17.11523,-8.25026 -0.16608,-7.201486 -10.68236,-7.572754 -16.61545,-9.082183 -0.46326,-6.941415 -0.1614,-19.873143 0.98111,-43.031049 1.37601,-27.890348 1.61476,-42.963062 0.70665,-44.648145 -1.16589,-2.1634051 -4.08012,-3.5166354 -7.1095,-3.6654202 z" />
  </g>
</svg>
