<?xml version="1.0" encoding="UTF-8" standalone="no"?>
<!-- Created with Inkscape (http://www.inkscape.org/) -->

<svg
   version="1.1"
   id="svg1"
   width="64"
   height="64"
   viewBox="0 0 64 64"
   sodipodi:docname="x101.svg"
   inkscape:version="1.3.2 (091e20e, 2023-11-25, custom)"
   xmlns:inkscape="http://www.inkscape.org/namespaces/inkscape"
   xmlns:sodipodi="http://sodipodi.sourceforge.net/DTD/sodipodi-0.dtd"
   xmlns="http://www.w3.org/2000/svg"
   xmlns:svg="http://www.w3.org/2000/svg">
  <defs
     id="defs1" />
  <sodipodi:namedview
     id="namedview1"
     pagecolor="#ffffff"
     bordercolor="#000000"
     borderopacity="0.25"
     inkscape:showpageshadow="2"
     inkscape:pageopacity="0.0"
     inkscape:pagecheckerboard="0"
     inkscape:deskcolor="#d1d1d1"
     inkscape:zoom="8.5"
     inkscape:cx="36.470588"
     inkscape:cy="27.176471"
     inkscape:window-width="1440"
     inkscape:window-height="740"
     inkscape:window-x="-6"
     inkscape:window-y="-6"
     inkscape:window-maximized="1"
     inkscape:current-layer="g1" />
  <g
     inkscape:groupmode="layer"
     inkscape:label="Image"
     id="g1">
    <path
       style="fill:#000000"
       d="M 37.99902,38.745198 C 37.493946,38.481786 36.16433,37.546117 35.044317,36.665934 L 33.007932,35.0656 26.202634,35.0568 c -3.742913,-0.0049 -7.021297,-0.009 -7.285297,-0.0093 -0.264,-2.37e-4 -2.856,0.02169 -5.76,0.04874 -5.7295365,0.05338 -7.2689716,-0.262229 -8.0071652,-1.641556 -0.8182278,-1.528873 0.8966998,-2.963704 4.041953,-3.381788 0.8608662,-0.11443 5.6692122,-0.24009 10.6852122,-0.279244 5.016,-0.03915 9.290876,-0.09243 9.499725,-0.118384 0.208849,-0.02596 0.424849,-0.505705 0.48,-1.066104 0.07897,-0.802478 0.286983,-1.06843 0.97926,-1.252054 0.764159,-0.20269 1.026449,-0.06087 2.007803,1.085622 l 1.128818,1.31877 7.272197,0.06987 c 3.999708,0.03843 8.530046,0.149416 10.067417,0.246638 2.789469,0.176403 2.796206,0.17497 3.274563,-0.696586 0.263638,-0.480344 0.808895,-1.266464 1.211682,-1.746934 0.673723,-0.803659 0.863604,-0.858034 2.372328,-0.679348 2.582049,0.305806 2.532916,0.206035 2.053919,4.170749 -0.230056,1.904199 -0.57172,3.651437 -0.759253,3.882751 -0.41447,0.511232 -1.417505,0.29588 -3.512028,-0.754033 -2.01971,-1.01241 -2.510493,-0.804374 -2.268445,0.961563 0.120301,0.877687 0.05495,1.449398 -0.182459,1.596123 -0.203444,0.125735 -1.783459,0.303183 -3.511144,0.39433 -2.741579,0.144635 -3.167492,0.09732 -3.347529,-0.371845 -0.271995,-0.708809 -0.224481,-2.120477 0.239013,-2.106993 0.627391,0.01825 0.818352,-0.552713 0.344721,-0.545208 -0.560062,0.0089 -2.086718,0.07623 -3.190588,0.107522 -1.347162,0.03819 -2.36246,0.109549 -3.92,0.15858 -1.099985,0.03463 -2,0.04132 -2,0.167721 0,0.126405 0.733201,1.00508 1.629336,1.952611 1.339507,1.416331 1.560226,1.806056 1.240818,2.19092 -0.499301,0.601621 -1.819125,0.595112 -2.988471,-0.01474 z"
       id="path1"
       sodipodi:nodetypes="ssccccssssssscsssssssssssssssssssss" />
  </g>
</svg>
