<?xml version="1.0" encoding="UTF-8" standalone="no"?>
<!-- Created with Inkscape (http://www.inkscape.org/) -->

<svg
   version="1.1"
   id="svg1"
   width="64"
   height="64"
   viewBox="0 0 64 64"
   sodipodi:docname="x59.svg"
   inkscape:version="1.3.2 (091e20e, 2023-11-25, custom)"
   xmlns:inkscape="http://www.inkscape.org/namespaces/inkscape"
   xmlns:sodipodi="http://sodipodi.sourceforge.net/DTD/sodipodi-0.dtd"
   xmlns="http://www.w3.org/2000/svg"
   xmlns:svg="http://www.w3.org/2000/svg">
  <defs
     id="defs1" />
  <sodipodi:namedview
     id="namedview1"
     pagecolor="#ffffff"
     bordercolor="#000000"
     borderopacity="0.25"
     inkscape:showpageshadow="2"
     inkscape:pageopacity="0.0"
     inkscape:pagecheckerboard="0"
     inkscape:deskcolor="#d1d1d1"
     inkscape:zoom="4.25"
     inkscape:cx="19.529412"
     inkscape:cy="3.0588235"
     inkscape:window-width="1440"
     inkscape:window-height="740"
     inkscape:window-x="-6"
     inkscape:window-y="-6"
     inkscape:window-maximized="1"
     inkscape:current-layer="g1" />
  <g
     inkscape:groupmode="layer"
     inkscape:label="Image"
     id="g1">
    <path
       style="fill:#000000"
       d="m 44.155294,39.980441 c -1.307588,-0.50622 -1.673318,-2.288262 -0.74239,-3.617347 0.423971,-0.605304 0.439668,-0.729962 0.07426,-0.589742 -0.254842,0.09779 -2.720936,0.435245 -5.480209,0.749894 -4.78557,0.545715 -5.001542,0.600711 -4.684614,1.192895 0.202187,0.377789 0.217024,0.736024 0.0379,0.915144 -0.161887,0.161887 -1.972598,0.53822 -4.023801,0.836296 l -3.72946,0.541955 -1.205844,-1.12843 -1.205845,-1.12843 -2.72,0.27154 C 16.084474,38.462555 12.386693,38.136552 10.328709,37.129675 7.5707571,35.780334 6.6096319,33.5425 8.0186976,31.751164 c 1.655617,-2.104776 5.3671904,-3.389506 9.8165964,-3.39793 2.072334,-0.0039 2.64,-0.103296 2.64,-0.462142 0,-1.156624 0.736964,-1.331992 4.513014,-1.073919 3.617883,0.247263 4.134272,0.432919 4.53324,1.629823 0.06174,0.185232 1.494458,0.372029 3.29154,0.42915 1.750213,0.05563 4.641361,0.163655 6.424772,0.240052 l 6.813655,0.192037 h 2.498451 l 0.66493,-1.6 c 0.553544,-1.331975 0.802579,-1.6 1.486639,-1.6 0.647575,0 1.063613,0.378157 1.963213,1.784459 0.866275,1.354206 1.270384,1.731659 1.676025,1.565472 2.120528,-0.868759 4.316224,-1.458656 5.075815,-1.363672 l 0.898706,0.11238 -1.213684,0.750363 c -1.112738,0.687952 -1.172623,0.795735 -0.72,1.295877 0.271526,0.300033 0.493684,0.94087 0.493684,1.424082 0,0.721687 -0.227979,0.974319 -1.276745,1.414803 -0.70221,0.29493 -1.27821,0.649023 -1.28,0.786874 -0.0018,0.137851 0.356745,0.961064 0.796745,1.829362 0.44,0.868298 0.8,1.655511 0.8,1.749362 0,0.607979 -2.064261,-0.05248 -4.06865,-1.301761 -2.203699,-1.373505 -2.42651,-1.445829 -3.317377,-1.07682 -0.871961,0.361178 -0.912355,0.442713 -0.464492,0.937596 1.136931,1.256294 0.21677,2.898556 -1.968703,3.513651 -1.702417,0.47914 -3.373014,0.669982 -3.940778,0.450178 z"
       id="path1"
       sodipodi:nodetypes="ssssssscccssscsssscccssssscssssssssssss" />
  </g>
</svg>
