<?xml version="1.0" encoding="UTF-8" standalone="no"?>
<!-- Created with Inkscape (http://www.inkscape.org/) -->

<svg
   version="1.1"
   id="svg1"
   width="64"
   height="64"
   viewBox="0 0 64 64"
   sodipodi:docname="zalan.svg"
   inkscape:version="1.3.2 (091e20e, 2023-11-25, custom)"
   xmlns:inkscape="http://www.inkscape.org/namespaces/inkscape"
   xmlns:sodipodi="http://sodipodi.sourceforge.net/DTD/sodipodi-0.dtd"
   xmlns="http://www.w3.org/2000/svg"
   xmlns:svg="http://www.w3.org/2000/svg">
  <defs
     id="defs1" />
  <sodipodi:namedview
     id="namedview1"
     pagecolor="#ffffff"
     bordercolor="#000000"
     borderopacity="0.25"
     inkscape:showpageshadow="2"
     inkscape:pageopacity="0.0"
     inkscape:pagecheckerboard="0"
     inkscape:deskcolor="#d1d1d1"
     showguides="true"
     inkscape:zoom="4.25"
     inkscape:cx="-2.3529412"
     inkscape:cy="44.705882"
     inkscape:window-width="1440"
     inkscape:window-height="740"
     inkscape:window-x="-6"
     inkscape:window-y="-6"
     inkscape:window-maximized="1"
     inkscape:current-layer="g1">
    <sodipodi:guide
       position="19.299856,34.11434"
       orientation="0,-1"
       id="guide1"
       inkscape:locked="false" />
    <sodipodi:guide
       position="19.757395,31.181926"
       orientation="0,-1"
       id="guide2"
       inkscape:locked="false" />
    <sodipodi:guide
       position="24.603157,30.703589"
       orientation="1,0"
       id="guide3"
       inkscape:locked="false" />
    <sodipodi:guide
       position="39.473196,33.282449"
       orientation="1,0"
       id="guide4"
       inkscape:locked="false" />
  </sodipodi:namedview>
  <g
     inkscape:groupmode="layer"
     inkscape:label="Image"
     id="g1">
    <path
       style="fill:#000000;stroke-width:0.93153"
       d="m 31.678107,46.007709 -7.073028,-13.164056 -1.908529,-0.0208 c -1.716712,-0.01871 -2.525583,-0.06379 -2.566789,-1.432613 -0.04486,-1.49003 0.895839,-1.517624 2.526772,-1.538421 1.190157,-0.01518 1.187378,-8.1e-5 1.932142,-0.02845 0.236079,-0.370239 3.462041,-6.972438 7.219641,-13.883567 l 6.832,-12.5656903 h 2.175355 c 2.036645,0 2.181467,0.043383 2.271198,0.6803597 0.05272,0.3741978 -2.058744,6.2187326 -4.692128,12.9878546 -3.666184,9.423936 -4.749183,12.503995 -4.40234,12.553911 2.241775,0.322627 2.733049,0.445948 4.324611,0.629949 0.290311,-1.221593 0.575026,-3.013189 1.151576,-3.010595 0.517585,0.0023 0.338356,0.410706 0.358113,1.117753 0.02484,0.888949 -0.270308,1.545637 0.02488,1.943317 0.492371,0.663319 0.562676,1.467187 0.106305,1.980153 -0.332337,0.37355 -0.28734,0.897581 -0.169611,1.933548 0.131652,1.158495 0.07573,1.42112 -0.302614,1.42112 -0.471224,0 -0.853407,-1.529434 -1.200631,-3.267322 -1.440614,0.177981 -2.022181,0.255507 -4.511875,0.560319 -0.06177,0.06223 1.031732,3.204202 2.430009,6.982169 3.357859,9.072523 6.639353,18.412218 6.639353,18.896744 0,0.280802 -0.566665,0.388386 -2.045695,0.388386 h -2.045696 z"
       id="path1"
       sodipodi:nodetypes="ccssscscsssscssssssccssscc" />
  </g>
</svg>
